<svg width="24" height="24" viewBox="0 0 24 24" fill="none" xmlns="http://www.w3.org/2000/svg">
<path d="M10.2979 2C12.5803 2 14.4324 3.84114 14.4512 6.11914C14.4517 6.13081 14.4531 6.14249 14.4531 6.1543V16.1445C14.4531 17.4986 13.355 18.5966 12.001 18.5967C10.6468 18.5967 9.54883 17.4987 9.54883 16.1445V6.1543C9.54883 5.74008 9.88461 5.4043 10.2988 5.4043C10.713 5.4043 11.0488 5.74008 11.0488 6.1543V16.1445C11.0488 16.6703 11.4752 17.0967 12.001 17.0967C12.5266 17.0966 12.9531 16.6702 12.9531 16.1445V14.4609C12.953 14.4548 12.9521 14.4486 12.9521 14.4424V6.1543C12.9521 4.6886 11.7635 3.5 10.2979 3.5C8.83241 3.5003 7.64453 4.68879 7.64453 6.1543V16.1436C7.64453 18.5491 9.59451 20.4998 12 20.5C14.4057 20.5 16.3564 18.5492 16.3564 16.1436V9.55762C16.3564 9.1434 16.6922 8.80762 17.1064 8.80762C17.5205 8.80777 17.8564 9.1435 17.8564 9.55762V16.1436C17.8564 19.3776 15.2341 22 12 22C8.76608 21.9998 6.14453 19.3775 6.14453 16.1436V6.1543C6.14453 3.86036 8.00398 2.0003 10.2979 2Z" fill="#344054"/>
</svg>
