<svg width="24" height="24" viewBox="0 0 24 24" fill="none" xmlns="http://www.w3.org/2000/svg">
<path d="M18.5 3.25C19.7426 3.25 20.75 4.25736 20.75 5.5V18.5C20.75 19.7426 19.7426 20.75 18.5 20.75H5.5C4.25736 20.75 3.25 19.7426 3.25 18.5V5.5C3.25 4.25736 4.25736 3.25 5.5 3.25H18.5ZM5.5 4.75C5.08579 4.75 4.75 5.08579 4.75 5.5V18.5C4.75 18.9142 5.08579 19.25 5.5 19.25H18.5C18.9142 19.25 19.25 18.9142 19.25 18.5V5.5C19.25 5.08579 18.9142 4.75 18.5 4.75H5.5ZM8 12C8.41421 12 8.75 12.3358 8.75 12.75V17C8.75 17.4142 8.41421 17.75 8 17.75C7.58579 17.75 7.25 17.4142 7.25 17V12.75C7.25 12.3358 7.58579 12 8 12ZM12 6.25C12.3882 6.25 12.7075 6.54488 12.7461 6.92285L12.75 7V17C12.75 17.4142 12.4142 17.75 12 17.75C11.5858 17.75 11.25 17.4142 11.25 17V7C11.25 6.58579 11.5858 6.25 12 6.25ZM16 10C16.4142 10 16.75 10.3358 16.75 10.75V17C16.75 17.4142 16.4142 17.75 16 17.75C15.5858 17.75 15.25 17.4142 15.25 17V10.75C15.25 10.3358 15.5858 10 16 10Z" fill="#344054"/>
</svg>
