<svg width="24" height="24" viewBox="0 0 24 24" fill="none" xmlns="http://www.w3.org/2000/svg">
<path d="M11.1143 2.3586C11.7204 2.09884 12.413 2.11737 13.0068 2.41426L19.9639 5.89278C20.7261 6.27389 21.208 7.05327 21.208 7.90547V16.0949C21.2079 16.947 20.726 17.7256 19.9639 18.1066L13.0068 21.5861C12.4131 21.883 11.7204 21.9015 11.1143 21.6418L10.9941 21.5861L4.03711 18.1066C3.27494 17.7256 2.79311 16.947 2.79297 16.0949V7.90547C2.79301 7.05327 3.27487 6.27389 4.03711 5.89278L10.9941 2.41426L11.1143 2.3586ZM13.0068 11.5432C12.9232 11.585 12.8371 11.6198 12.75 11.6506V20.0373L19.293 16.7658C19.5469 16.6388 19.7079 16.3789 19.708 16.0949V8.19161L13.0068 11.5432ZM4.29297 16.0949C4.29311 16.3789 4.45403 16.6388 4.70801 16.7658L11.25 20.0363V11.6506C11.1632 11.6199 11.0775 11.5848 10.9941 11.5432L4.29297 8.19161V16.0949ZM12.3359 3.75606C12.1512 3.66371 11.938 3.65265 11.7461 3.72188L11.665 3.75606L5.21973 6.97872L11.665 10.2014C11.8761 10.3069 12.1248 10.3069 12.3359 10.2014L18.7803 6.97774L12.3359 3.75606Z" fill="#344054"/>
</svg>
