<svg width="24" height="24" viewBox="0 0 24 24" fill="none" xmlns="http://www.w3.org/2000/svg">
<path d="M19.75 3.25C20.9926 3.25 22 4.25736 22 5.5V6.5C22 7.38289 21.4901 8.14426 20.75 8.5127V18.5C20.75 19.7426 19.7426 20.75 18.5 20.75H5.5C4.33517 20.75 3.37714 19.8648 3.26172 18.7305L3.25 18.5V8.5127C2.50988 8.14426 2 7.38289 2 6.5V5.5C2 4.25736 3.00736 3.25 4.25 3.25H19.75ZM4.75 18.5L4.75391 18.5771C4.79253 18.9551 5.11183 19.25 5.5 19.25H18.5C18.9142 19.25 19.25 18.9142 19.25 18.5V8.75H4.75V18.5ZM14 11C14.4142 11 14.75 11.3358 14.75 11.75C14.75 12.1642 14.4142 12.5 14 12.5H10C9.58579 12.5 9.25 12.1642 9.25 11.75C9.25 11.3358 9.58579 11 10 11H14ZM4.25 4.75C3.83579 4.75 3.5 5.08579 3.5 5.5V6.5C3.5 6.91421 3.83579 7.25 4.25 7.25H19.75C20.1642 7.25 20.5 6.91421 20.5 6.5V5.5C20.5 5.08579 20.1642 4.75 19.75 4.75H4.25Z" fill="#344054"/>
</svg>
