<svg width="24" height="24" viewBox="0 0 24 24" fill="none" xmlns="http://www.w3.org/2000/svg">
<path d="M14 3C15.2426 3 16.25 4.00736 16.25 5.25V6H19.25C20.4926 6 21.5 7.00736 21.5 8.25V17.25C21.5 18.4926 20.4926 19.5 19.25 19.5H4.75C3.50736 19.5 2.5 18.4926 2.5 17.25V8.25C2.5 7.00736 3.50736 6 4.75 6H7.75V5.25C7.75 4.00742 8.75744 3.0001 10 3H14ZM4 17.25C4 17.6642 4.33579 18 4.75 18H19.25C19.6642 18 20 17.6642 20 17.25V10.8877L12.8867 13.9365C12.3915 14.1487 11.8386 14.1748 11.3291 14.0156L11.1143 13.9365L4 10.8867V17.25ZM4.75 7.5C4.33579 7.5 4 7.83579 4 8.25V9.25488L11.7051 12.5576L11.7764 12.584C11.9462 12.6371 12.1308 12.6283 12.2959 12.5576L20 9.25488V8.25C20 7.83579 19.6642 7.5 19.25 7.5H4.75ZM10 4.5C9.58587 4.5001 9.25 4.83585 9.25 5.25V6H14.75V5.25C14.75 4.83579 14.4142 4.5 14 4.5H10Z" fill="#344054"/>
</svg>
