<svg width="24" height="24" viewBox="0 0 24 24" fill="none" xmlns="http://www.w3.org/2000/svg">
<path d="M9.75 3.80273C6.14771 4.78924 3.5 8.08465 3.5 12C3.5 16.6944 7.30558 20.5 12 20.5C15.9153 20.5 19.2097 17.8522 20.1963 14.25H21.7432C20.7222 18.6891 16.749 22 12 22C6.47715 22 2 17.5228 2 12C2 7.25103 5.31095 3.27779 9.75 2.25684V3.80273ZM12 2C17.5228 2 22 6.47715 22 12C22 12.4142 21.6642 12.75 21.25 12.75H12C11.5858 12.75 11.25 12.4142 11.25 12V2.75L11.2539 2.67285C11.2925 2.29488 11.6118 2 12 2ZM12.75 11.25H20.4648C20.3898 10.3924 20.1855 9.57213 19.875 8.80664C19.8416 8.72432 19.8074 8.64253 19.7715 8.56152C19.4988 7.94578 19.1562 7.36823 18.752 6.83984C18.7383 6.82195 18.7248 6.80391 18.7109 6.78613C17.8453 5.67313 16.7088 4.78185 15.4004 4.20996C15.3316 4.17989 15.2621 4.15133 15.1924 4.12305C14.4273 3.8127 13.6072 3.60913 12.75 3.53418V11.25Z" fill="#344054"/>
</svg>
