<svg width="24" height="24" viewBox="0 0 24 24" fill="none" xmlns="http://www.w3.org/2000/svg">
<path d="M20.75 6H21.5V6L20.75 6ZM20.75 21.7178L20.2497 22.2765C20.4701 22.4739 20.7859 22.5232 21.056 22.4025C21.3261 22.2818 21.5 22.0136 21.5 21.7178H20.75ZM16.6523 18.0488L17.1526 17.4901C17.0151 17.3669 16.837 17.2988 16.6523 17.2988V18.0488ZM4.75 18.0488L4.75 18.7988H4.75V18.0488ZM3.25 16.5488H2.5L2.5 16.549L3.25 16.5488ZM4.75 4.5V3.75H4.75L4.75 4.5ZM19.25 4.5V5.25C19.6642 5.25 20 5.58579 20 6L20.75 6L21.5 6C21.5 4.75736 20.4926 3.75 19.25 3.75V4.5ZM20.75 6H20V21.7178H20.75H21.5V6H20.75ZM20.75 21.7178L21.2503 21.159L17.1526 17.4901L16.6523 18.0488L16.152 18.6076L20.2497 22.2765L20.75 21.7178ZM16.6523 18.0488V17.2988H4.75V18.0488V18.7988H16.6523V18.0488ZM4.75 18.0488L4.75 17.2988C4.33615 17.2988 4.00012 16.963 4 16.5486L3.25 16.5488L2.5 16.549C2.50036 17.7911 3.50729 18.7988 4.75 18.7988L4.75 18.0488ZM3.25 16.5488H4V6H3.25H2.5V16.5488H3.25ZM3.25 6H4C4 5.58579 4.33579 5.25 4.75 5.25L4.75 4.5L4.75 3.75C3.50736 3.75 2.5 4.75736 2.5 6H3.25ZM4.75 4.5V5.25H19.25V4.5V3.75H4.75V4.5Z" fill="#344054"/>
</svg>
