<svg width="24" height="24" viewBox="0 0 24 24" fill="none" xmlns="http://www.w3.org/2000/svg">
<path d="M12.0003 2.5957C17.247 2.5957 21.5003 6.849 21.5003 12.0957C21.5003 17.3424 17.247 21.5957 12.0003 21.5957H3.25032C2.94697 21.5957 2.67305 21.4131 2.55696 21.1328C2.44092 20.8526 2.50557 20.5299 2.72005 20.3154L4.77473 18.2598C3.35835 16.6008 2.50032 14.4485 2.50032 12.0957C2.50032 6.849 6.75361 2.5957 12.0003 2.5957ZM12.0003 4.0957C7.58204 4.0957 4.00032 7.67742 4.00032 12.0957C4.00032 14.305 4.89456 16.3044 6.34309 17.7529C6.48374 17.8936 6.56282 18.0843 6.56282 18.2832C6.56274 18.482 6.48367 18.6729 6.34309 18.8135L5.06087 20.0957H12.0003C16.4186 20.0957 20.0003 16.514 20.0003 12.0957C20.0003 7.67742 16.4186 4.0957 12.0003 4.0957ZM7.75325 10.8535C8.38354 10.9176 8.87532 11.4495 8.87532 12.0967C8.87532 12.7439 8.38354 13.2758 7.75325 13.3398L7.62532 13.3467C6.93496 13.3467 6.37532 12.787 6.37532 12.0967C6.37532 11.4063 6.93496 10.8467 7.62532 10.8467L7.75325 10.8535ZM12.1282 10.8535C12.7585 10.9176 13.2503 11.4495 13.2503 12.0967C13.2503 12.7439 12.7585 13.2758 12.1282 13.3398L12.0003 13.3467C11.31 13.3467 10.7503 12.787 10.7503 12.0967C10.7503 11.4063 11.31 10.8467 12.0003 10.8467L12.1282 10.8535ZM16.5032 10.8535C17.1335 10.9176 17.6253 11.4495 17.6253 12.0967C17.6253 12.7439 17.1335 13.2758 16.5032 13.3398L16.3753 13.3467C15.685 13.3467 15.1253 12.787 15.1253 12.0967C15.1253 11.4063 15.685 10.8467 16.3753 10.8467L16.5032 10.8535Z" fill="#344054"/>
</svg>
