<svg width="24" height="24" viewBox="0 0 24 24" fill="none" xmlns="http://www.w3.org/2000/svg">
<path d="M12 2.05176C17.4943 2.05176 21.9482 6.50574 21.9482 12C21.9482 17.4943 17.4943 21.9482 12 21.9482C6.50574 21.9482 2.05176 17.4943 2.05176 12C2.05177 6.50574 6.50574 2.05177 12 2.05176ZM12 3.55176C7.33417 3.55177 3.55177 7.33417 3.55176 12C3.55176 16.6658 7.33416 20.4482 12 20.4482C16.6658 20.4482 20.4482 16.6658 20.4482 12C20.4482 7.33416 16.6658 3.55176 12 3.55176ZM14.4531 9.57227C14.746 9.27955 15.2208 9.27943 15.5137 9.57227C15.8063 9.86511 15.8063 10.34 15.5137 10.6328L11.7197 14.4268C11.5792 14.5673 11.3882 14.6464 11.1895 14.6465C10.9906 14.6465 10.7998 14.5673 10.6592 14.4268L8.48633 12.2549L8.43457 12.1973C8.1945 11.9027 8.21181 11.4679 8.48633 11.1934C8.76102 10.9189 9.19573 10.9021 9.49023 11.1426L9.54688 11.1934L11.1895 12.8359L14.4531 9.57227Z" fill="#344054"/>
</svg>
