<svg width="24" height="24" viewBox="0 0 24 24" fill="none" xmlns="http://www.w3.org/2000/svg">
<path d="M6.21967 6.22076C6.51256 5.92786 6.98732 5.92786 7.28022 6.22076L11.999 10.9395L16.7177 6.22076L16.7744 6.169C17.0689 5.92881 17.5037 5.9462 17.7783 6.22076C18.0528 6.49531 18.0702 6.93008 17.83 7.22466L17.7783 7.2813L13.0595 12.0001L17.7783 16.7188L17.83 16.7754C18.0702 17.07 18.0528 17.5048 17.7783 17.7793C17.5037 18.0539 17.0689 18.0713 16.7744 17.8311L16.7177 17.7793L11.999 13.0606L7.28022 17.7793C6.98732 18.0722 6.51256 18.0722 6.21967 17.7793C5.92678 17.4865 5.92678 17.0117 6.21967 16.7188L10.9384 12.0001L6.21967 7.2813C5.92678 6.98841 5.92678 6.51365 6.21967 6.22076Z" fill="#344054"/>
</svg>
