<svg width="24" height="24" viewBox="0 0 24 24" fill="none" xmlns="http://www.w3.org/2000/svg">
<path d="M18.498 3.25098C19.7407 3.25098 20.748 4.25834 20.748 5.50098V15.4951C20.748 16.7378 19.7407 17.7461 18.498 17.7461H17.7383V18.5L17.7266 18.7305C17.6111 19.8648 16.6531 20.75 15.4883 20.75H5.50195C4.25931 20.75 3.25195 19.7426 3.25195 18.5V8.51367C3.25195 7.27103 4.25931 6.26367 5.50195 6.26367H6.25586V5.50098C6.25586 4.25834 7.26322 3.25098 8.50586 3.25098H18.498ZM5.50195 7.76367C5.08774 7.76367 4.75195 8.09946 4.75195 8.51367V18.5C4.75195 18.9142 5.08774 19.25 5.50195 19.25H15.4883C15.8764 19.25 16.1958 18.9551 16.2344 18.5771L16.2383 18.5V17.7461H8.50586C7.26338 17.7461 6.25612 16.7385 6.25586 15.4961V7.76367H5.50195ZM8.50586 4.75098C8.09165 4.75098 7.75586 5.08676 7.75586 5.50098V15.4961C7.75612 15.9101 8.09181 16.2461 8.50586 16.2461H18.498C18.9123 16.2461 19.248 15.9093 19.248 15.4951V5.50098C19.248 5.08676 18.9123 4.75098 18.498 4.75098H8.50586Z" fill="#344054"/>
</svg>
