<svg width="24" height="24" viewBox="0 0 24 24" fill="none" xmlns="http://www.w3.org/2000/svg">
<path d="M15.2773 2C15.8741 2 16.4472 2.23723 16.8691 2.65918L19.3418 5.13184C19.7636 5.55376 20 6.12605 20 6.72266V16.75C20 17.9926 18.9926 19 17.75 19H16.248V19.749C16.248 20.9917 15.2407 21.999 13.998 21.999H6.24805C5.00541 21.999 3.99805 20.9917 3.99805 19.749V7.24805C3.99805 6.00541 5.00541 4.99805 6.24805 4.99805H7.00391V4.25C7.00391 3.00736 8.01127 2 9.25391 2H15.2773ZM6.24805 6.49805C5.83383 6.49805 5.49805 6.83383 5.49805 7.24805V19.749C5.49805 20.1632 5.83383 20.499 6.24805 20.499H13.998C14.4123 20.499 14.748 20.1632 14.748 19.749V19H9.25391C8.01127 19 7.00391 17.9926 7.00391 16.75V6.49805H6.24805ZM9.25391 3.5C8.83969 3.5 8.50391 3.83579 8.50391 4.25V16.75C8.50391 17.1642 8.83969 17.5 9.25391 17.5H14.748V17.499H16.248V17.5H17.75C18.1642 17.5 18.5 17.1642 18.5 16.75V6.72266C18.5 6.52375 18.4209 6.33303 18.2803 6.19238L15.8076 3.71973C15.667 3.57919 15.4762 3.5 15.2773 3.5H9.25391Z" fill="#344054"/>
</svg>
