<svg width="24" height="24" viewBox="0 0 24 24" fill="none" xmlns="http://www.w3.org/2000/svg">
<path d="M7.25 12.75C9.45913 12.75 11.25 14.5409 11.25 16.75C11.25 18.9591 9.45913 20.75 7.25 20.75C5.04087 20.75 3.25001 18.9591 3.25 16.75C3.25001 14.5409 5.04087 12.75 7.25 12.75ZM16.75 12.75C18.9591 12.75 20.75 14.5409 20.75 16.75C20.75 18.9591 18.9591 20.75 16.75 20.75C14.5409 20.75 12.75 18.9591 12.75 16.75C12.75 14.5409 14.5409 12.75 16.75 12.75ZM7.25 14.25C5.8693 14.25 4.75001 15.3693 4.75 16.75C4.75001 18.1307 5.86929 19.25 7.25 19.25C8.63071 19.25 9.74999 18.1307 9.75 16.75C9.74999 15.3693 8.6307 14.25 7.25 14.25ZM16.75 14.25C15.3693 14.25 14.25 15.3693 14.25 16.75C14.25 18.1307 15.3693 19.25 16.75 19.25C18.1307 19.25 19.25 18.1307 19.25 16.75C19.25 15.3693 18.1307 14.25 16.75 14.25ZM7.25 3.25C9.45913 3.25 11.25 5.04086 11.25 7.25C11.25 9.45913 9.45913 11.25 7.25 11.25C5.04087 11.25 3.25001 9.45913 3.25 7.25C3.25 5.04086 5.04087 3.25 7.25 3.25ZM16.75 3.25C18.9591 3.25 20.75 5.04086 20.75 7.25C20.75 9.45913 18.9591 11.25 16.75 11.25C14.5409 11.25 12.75 9.45913 12.75 7.25C12.75 5.04086 14.5409 3.25 16.75 3.25ZM7.25 4.75C5.86929 4.75 4.75 5.8693 4.75 7.25C4.75001 8.6307 5.86929 9.75 7.25 9.75C8.63071 9.75 9.74999 8.6307 9.75 7.25C9.75 5.8693 8.63071 4.75 7.25 4.75ZM16.75 4.75C15.3693 4.75 14.25 5.8693 14.25 7.25C14.25 8.6307 15.3693 9.75 16.75 9.75C18.1307 9.75 19.25 8.6307 19.25 7.25C19.25 5.8693 18.1307 4.75 16.75 4.75Z" fill="#344054"/>
</svg>
