<svg width="24" height="24" viewBox="0 0 24 24" fill="none" xmlns="http://www.w3.org/2000/svg">
<path d="M9 12.75C10.2426 12.75 11.25 13.7574 11.25 15V18.5C11.25 19.7426 10.2426 20.75 9 20.75H5.5C4.25737 20.75 3.25001 19.7426 3.25 18.5V15C3.25002 13.7574 4.25737 12.75 5.5 12.75H9ZM18.5 12.75C19.7426 12.75 20.75 13.7574 20.75 15V18.5C20.75 19.7426 19.7426 20.75 18.5 20.75H15C13.7574 20.75 12.75 19.7426 12.75 18.5V15C12.75 13.7574 13.7574 12.75 15 12.75H18.5ZM5.5 14.25C5.0858 14.25 4.75002 14.5858 4.75 15V18.5C4.75001 18.9142 5.08579 19.25 5.5 19.25H9C9.41421 19.25 9.74999 18.9142 9.75 18.5V15C9.74998 14.5858 9.4142 14.25 9 14.25H5.5ZM15 14.25C14.5858 14.25 14.25 14.5858 14.25 15V18.5C14.25 18.9142 14.5858 19.25 15 19.25H18.5C18.9142 19.25 19.25 18.9142 19.25 18.5V15C19.25 14.5858 18.9142 14.25 18.5 14.25H15ZM9 3.25C10.2426 3.25 11.25 4.25736 11.25 5.5V9C11.25 10.2426 10.2426 11.25 9 11.25H5.5C4.25737 11.25 3.25001 10.2426 3.25 9V5.5C3.25 4.25736 4.25736 3.25 5.5 3.25H9ZM18.5 3.25C19.7426 3.25 20.75 4.25736 20.75 5.5V9C20.75 10.2426 19.7426 11.25 18.5 11.25H15C13.7574 11.25 12.75 10.2426 12.75 9V5.5C12.75 4.25736 13.7574 3.25 15 3.25H18.5ZM5.5 4.75C5.08579 4.75 4.75 5.08579 4.75 5.5V9C4.75001 9.4142 5.08579 9.75 5.5 9.75H9C9.41421 9.75 9.74999 9.4142 9.75 9V5.5C9.75 5.08579 9.41421 4.75 9 4.75H5.5ZM15 4.75C14.5858 4.75 14.25 5.08579 14.25 5.5V9C14.25 9.4142 14.5858 9.75 15 9.75H18.5C18.9142 9.75 19.25 9.4142 19.25 9V5.5C19.25 5.08579 18.9142 4.75 18.5 4.75H15Z" fill="#344054"/>
</svg>
