<svg width="24" height="24" viewBox="0 0 24 24" fill="none" xmlns="http://www.w3.org/2000/svg">
<path d="M12 2.04199C12.4142 2.04199 12.75 2.37778 12.75 2.79199V4.35938H12.8721C14.7293 4.3596 16.2351 5.86545 16.2354 7.72266C16.2354 8.13675 15.8994 8.47247 15.4854 8.47266C15.0711 8.47266 14.7354 8.13687 14.7354 7.72266C14.7351 6.69388 13.9008 5.8596 12.8721 5.85938H11.8145C10.4073 5.85956 9.2666 7.00099 9.2666 8.4082C9.26672 9.47025 9.9255 10.421 10.9199 10.7939L13.6084 11.8018C15.1884 12.3943 16.2354 13.9053 16.2354 15.5928C16.2352 17.6371 14.7189 19.3263 12.75 19.6006V21.209L12.7461 21.2852C12.7077 21.6634 12.3884 21.959 12 21.959C11.6116 21.959 11.2923 21.6634 11.2539 21.2852L11.25 21.209V19.6406H11.1299C9.27241 19.6406 7.76664 18.1348 7.7666 16.2773C7.7666 15.8631 8.10239 15.5273 8.5166 15.5273C8.93082 15.5273 9.2666 15.8631 9.2666 16.2773C9.26664 17.3064 10.1008 18.1406 11.1299 18.1406H12.1865C13.5937 18.1406 14.7352 16.9999 14.7354 15.5928C14.7354 14.5307 14.0764 13.5791 13.082 13.2061L10.3936 12.1982C8.81367 11.6057 7.76672 10.0955 7.7666 8.4082C7.7666 6.36416 9.28167 4.67434 11.25 4.39941V2.79199C11.25 2.37778 11.5858 2.04199 12 2.04199Z" fill="#344054"/>
</svg>
