<svg width="24" height="24" viewBox="0 0 24 24" fill="none" xmlns="http://www.w3.org/2000/svg">
<path d="M11.3779 11.4697C11.085 11.7626 11.085 12.2373 11.3779 12.5302L17.6279 18.7802L17.6845 18.832C17.9791 19.0723 18.4138 19.0548 18.6884 18.7802C18.963 18.5056 18.9805 18.0709 18.7402 17.7763L18.6884 17.7197L12.9687 11.9999L18.6884 6.28022C18.9813 5.98732 18.9813 5.51256 18.6884 5.21967C18.3955 4.92678 17.9208 4.92678 17.6279 5.21967L11.3779 11.4697ZM5.21967 11.4697C4.92678 11.7626 4.92678 12.2373 5.21967 12.5302L11.4697 18.7802L11.5263 18.832C11.8209 19.0723 12.2556 19.0548 12.5302 18.7802C12.8048 18.5056 12.8223 18.0709 12.582 17.7763L12.5302 17.7197L6.81049 11.9999L12.5302 6.28022C12.8231 5.98732 12.8231 5.51256 12.5302 5.21967C12.2373 4.92678 11.7626 4.92678 11.4697 5.21967L5.21967 11.4697Z" fill="#344054"/>
</svg>
