<svg width="24" height="24" viewBox="0 0 24 24" fill="none" xmlns="http://www.w3.org/2000/svg">
<path d="M20.001 15.25C20.4151 15.2501 20.751 15.5858 20.751 16V18.5C20.751 19.7426 19.7436 20.7499 18.501 20.75H5.5C4.25736 20.75 3.25 19.7426 3.25 18.5V16C3.25 15.5858 3.58579 15.25 4 15.25C4.41421 15.25 4.75 15.5858 4.75 16V18.5C4.75 18.9142 5.08579 19.25 5.5 19.25H18.501C18.9151 19.2499 19.251 18.9142 19.251 18.5V16C19.251 15.5858 19.5868 15.25 20.001 15.25ZM12.002 3.25C12.4161 3.25002 12.752 3.5858 12.752 4V14.1855L16.0947 10.8447C16.3876 10.5522 16.8625 10.5522 17.1553 10.8447C17.4479 11.1376 17.4479 11.6125 17.1553 11.9053L12.5547 16.502C12.4175 16.6529 12.222 16.75 12.002 16.75C11.8472 16.75 11.7044 16.7014 11.585 16.6211C11.5765 16.6154 11.5688 16.6086 11.5605 16.6025C11.5319 16.5815 11.5039 16.56 11.4785 16.5352C11.4758 16.5325 11.4725 16.5301 11.4697 16.5273L6.84473 11.9053L6.79297 11.8486C6.55293 11.5541 6.57034 11.1193 6.84473 10.8447C7.11926 10.5704 7.55411 10.5529 7.84863 10.793L7.90527 10.8447L11.252 14.1895V4C11.252 3.58579 11.5877 3.25 12.002 3.25Z" fill="#344054"/>
</svg>
