<svg width="24" height="24" viewBox="0 0 24 24" fill="none" xmlns="http://www.w3.org/2000/svg">
<path d="M12 2C17.5228 2 22 6.47715 22 12C22 17.5228 17.5228 22 12 22C6.47715 22 2 17.5228 2 12C2 6.47715 6.47715 2 12 2ZM12 3.5C7.30558 3.5 3.5 7.30558 3.5 12C3.5 16.6944 7.30558 20.5 12 20.5C16.6944 20.5 20.5 16.6944 20.5 12C20.5 7.30558 16.6944 3.5 12 3.5ZM14.8213 13.6543C15.0869 13.3825 15.5205 13.35 15.8242 13.5918C16.1481 13.8498 16.2011 14.3215 15.9434 14.6455L15.7646 14.8584C14.8428 15.8939 13.4974 16.5478 12 16.5479C10.5026 16.5478 9.15716 15.894 8.23535 14.8584L8.05664 14.6455L8.01172 14.583C7.80658 14.2633 7.87311 13.8336 8.17676 13.5918C8.48063 13.3502 8.91422 13.3822 9.17969 13.6543L9.23047 13.7119L9.35645 13.8613C10.0054 14.5904 10.9491 15.0478 12 15.0479C13.1212 15.0478 14.1211 14.5276 14.7705 13.7119L14.8213 13.6543ZM8.75 7.98242C9.44031 7.98242 9.99993 8.54213 10 9.23242C10 9.92278 9.44036 10.4824 8.75 10.4824C8.10284 10.4824 7.57088 9.99062 7.50684 9.36035L7.5 9.23242C7.50007 8.54215 8.05972 7.98246 8.75 7.98242ZM15.25 7.98242C15.9403 7.98246 16.4999 8.54215 16.5 9.23242C16.5 9.92276 15.9403 10.4824 15.25 10.4824C14.6028 10.4824 14.0709 9.99064 14.0068 9.36035L14 9.23242C14.0001 8.54213 14.5597 7.98242 15.25 7.98242Z" fill="#344054"/>
</svg>
