<svg width="24" height="24" viewBox="0 0 24 24" fill="none" xmlns="http://www.w3.org/2000/svg">
<path d="M14.7959 3C15.3925 3.00006 15.9648 3.2373 16.3867 3.65918L20.3408 7.61328C20.7626 8.0352 21 8.60748 21 9.2041V14.7959C20.9999 15.3925 20.7627 15.9648 20.3408 16.3867L16.3867 20.3408C15.9648 20.7626 15.3925 21 14.7959 21H9.2041C8.60746 21 8.03519 20.7627 7.61328 20.3408L3.65918 16.3867C3.23736 15.9648 3.00002 15.3925 3 14.7959V9.2041C3.00005 8.60746 3.2373 8.03519 3.65918 7.61328L7.61328 3.65918C8.0352 3.23736 8.60747 3.00002 9.2041 3H14.7959ZM9.2041 4.5C9.00528 4.50001 8.81446 4.5792 8.67383 4.71973L4.71973 8.67383C4.57913 8.81443 4.50005 9.00527 4.5 9.2041V14.7959C4.50001 14.9947 4.5792 15.1855 4.71973 15.3262L8.67383 19.2803C8.81443 19.4209 9.00527 19.5 9.2041 19.5H14.7959C14.9947 19.5 15.1855 19.4208 15.3262 19.2803L19.2803 15.3262C19.4209 15.1856 19.4999 14.9947 19.5 14.7959V9.2041C19.5 9.00529 19.4208 8.81446 19.2803 8.67383L15.3262 4.71973C15.1856 4.57913 14.9947 4.50006 14.7959 4.5H9.2041ZM12.0928 14.4346C12.5464 14.4807 12.9003 14.8642 12.9004 15.3301C12.9004 15.796 12.5465 16.1794 12.0928 16.2256L12.001 16.2305H12C11.5029 16.2305 11.0996 15.8271 11.0996 15.3301C11.0997 14.8331 11.503 14.4297 12 14.4297H12.001L12.0928 14.4346ZM12.001 7.81055C12.415 7.81067 12.7509 8.14649 12.751 8.56055V12.7803C12.7509 13.1943 12.415 13.5302 12.001 13.5303C11.5868 13.5303 11.2511 13.1944 11.251 12.7803V8.56055C11.2511 8.14642 11.5868 7.81055 12.001 7.81055Z" fill="#344054"/>
</svg>
