<svg width="24" height="24" viewBox="0 0 24 24" fill="none" xmlns="http://www.w3.org/2000/svg">
<path d="M10.0509 3.87486C10.9169 2.37501 13.0813 2.37508 13.9473 3.87486L21.4532 16.8749C22.3192 18.3748 21.2369 20.2497 19.505 20.2499H4.49324C2.76145 20.2496 1.67909 18.3747 2.54499 16.8749L10.0509 3.87486ZM12.6485 4.62486C12.3598 4.12496 11.6383 4.1249 11.3497 4.62486L3.84382 17.6249C3.55536 18.1247 3.91619 18.7496 4.49324 18.7499H19.505C20.0822 18.7497 20.443 18.1248 20.1544 17.6249L12.6485 4.62486ZM12.0928 15.1844C12.5465 15.2306 12.9004 15.6141 12.9005 16.0799C12.9005 16.5459 12.5466 16.9293 12.0928 16.9754L12.001 16.9803H12.0001C11.503 16.9803 11.0997 16.577 11.0997 16.0799C11.0998 15.583 11.5031 15.1796 12.0001 15.1796H12.001L12.0928 15.1844ZM12.001 8.56041C12.4151 8.56052 12.7509 8.89636 12.751 9.31041V13.5301C12.7509 13.9442 12.4151 14.28 12.001 14.2801C11.5869 14.2801 11.2512 13.9443 11.251 13.5301V9.31041C11.2512 8.89629 11.5869 8.56041 12.001 8.56041Z" fill="#344054"/>
</svg>
