<svg width="24" height="24" viewBox="0 0 24 24" fill="none" xmlns="http://www.w3.org/2000/svg">
<path d="M18.5 3.25C19.7426 3.25 20.75 4.25736 20.75 5.5V18.5C20.75 19.7426 19.7426 20.75 18.5 20.75H5.5C4.25736 20.75 3.25 19.7426 3.25 18.5V5.5C3.25 4.25736 4.25736 3.25 5.5 3.25H18.5ZM5.5 4.75C5.08579 4.75 4.75 5.08579 4.75 5.5V18.5C4.75 18.9142 5.08579 19.25 5.5 19.25H18.5C18.9142 19.25 19.25 18.9142 19.25 18.5V5.5C19.25 5.08579 18.9142 4.75 18.5 4.75H5.5ZM12.0928 14.4346C12.5465 14.4807 12.9003 14.8642 12.9004 15.3301C12.9004 15.796 12.5465 16.1794 12.0928 16.2256L12.001 16.2305H12C11.5029 16.2305 11.0996 15.8271 11.0996 15.3301C11.0997 14.8331 11.503 14.4297 12 14.4297H12.001L12.0928 14.4346ZM12.001 7.81055C12.415 7.81066 12.7509 8.14649 12.751 8.56055V12.7803C12.7509 13.1943 12.415 13.5302 12.001 13.5303C11.5868 13.5303 11.2511 13.1944 11.251 12.7803V8.56055C11.2511 8.14643 11.5868 7.81055 12.001 7.81055Z" fill="#344054"/>
</svg>
