<svg width="24" height="24" viewBox="0 0 24 24" fill="none" xmlns="http://www.w3.org/2000/svg">
<path d="M12 2C17.5228 2 22 6.47715 22 12C22 17.5228 17.5228 22 12 22C6.47715 22 2 17.5228 2 12C2 6.47715 6.47715 2 12 2ZM12 3.5C7.30558 3.5 3.5 7.30558 3.5 12C3.5 16.6944 7.30558 20.5 12 20.5C16.6944 20.5 20.5 16.6944 20.5 12C20.5 7.30558 16.6944 3.5 12 3.5ZM12.0928 14.4346C12.5465 14.4807 12.9003 14.8642 12.9004 15.3301C12.9004 15.796 12.5465 16.1794 12.0928 16.2256L12.001 16.2305H12C11.5029 16.2305 11.0996 15.8271 11.0996 15.3301C11.0997 14.8331 11.503 14.4297 12 14.4297H12.001L12.0928 14.4346ZM12.001 7.81055C12.415 7.81066 12.7509 8.14649 12.751 8.56055V12.7803C12.7509 13.1943 12.415 13.5302 12.001 13.5303C11.5868 13.5303 11.2511 13.1944 11.251 12.7803V8.56055C11.2511 8.14643 11.5868 7.81055 12.001 7.81055Z" fill="#344054"/>
</svg>
