<svg width="24" height="24" viewBox="0 0 24 24" fill="none" xmlns="http://www.w3.org/2000/svg">
<path d="M12 22C6.47715 22 2 17.5228 2 12C2 6.47715 6.47715 2 12 2C17.5228 2 22 6.47715 22 12C22 17.5228 17.5228 22 12 22ZM12 20.5C16.6944 20.5 20.5 16.6944 20.5 12C20.5 7.30558 16.6944 3.5 12 3.5C7.30558 3.5 3.5 7.30558 3.5 12C3.5 16.6944 7.30558 20.5 12 20.5ZM12 13.8047C11.5859 13.8047 11.2501 13.4688 11.25 13.0547L11.25 7.37793C11.25 6.96372 11.5858 6.62793 12 6.62793C12.4142 6.62793 12.75 6.96372 12.75 7.37793L12.75 13.0547C12.7499 13.4688 12.4141 13.8047 12 13.8047ZM11.8975 17.4697C11.3933 17.4184 11 16.9923 11 16.4746C11 15.9569 11.3933 15.5308 11.8975 15.4795L12 15.4746L12.001 15.4746C12.5533 15.4746 13.001 15.9223 13.001 16.4746C13.001 17.0269 12.5533 17.4746 12.001 17.4746L12 17.4746L11.8975 17.4697Z" fill="#344054"/>
</svg>
