<svg width="24" height="24" viewBox="0 0 24 24" fill="none" xmlns="http://www.w3.org/2000/svg">
<path d="M15.873 3.03906C16.6769 3.0391 17.4204 3.46794 17.8223 4.16406L21.6963 10.875C22.0982 11.5711 22.0982 12.4289 21.6963 13.125L17.8223 19.8359C17.4204 20.5321 16.6769 20.9609 15.873 20.9609H8.12402C7.3203 20.9609 6.5777 20.5319 6.17578 19.8359L2.30078 13.125C1.89894 12.4289 1.89896 11.5711 2.30078 10.875L6.17578 4.16406C6.5777 3.46802 7.32028 3.03912 8.12402 3.03906H15.873ZM8.12402 4.53906C7.85615 4.53912 7.60856 4.68208 7.47461 4.91406L3.60059 11.625C3.46661 11.8571 3.46661 12.1429 3.60059 12.375L7.47461 19.0859C7.60857 19.3179 7.85616 19.4609 8.12402 19.4609H15.873C16.1409 19.4609 16.3885 19.3178 16.5225 19.0859L20.3975 12.375C20.5314 12.143 20.5313 11.857 20.3975 11.625L16.5225 4.91406C16.3885 4.68212 16.1409 4.5391 15.873 4.53906H8.12402ZM12.0928 14.4346C12.5464 14.4808 12.9003 14.8643 12.9004 15.3301C12.9004 15.796 12.5464 16.1793 12.0928 16.2256L12.001 16.2305H12C11.5029 16.2305 11.0996 15.8271 11.0996 15.3301C11.0997 14.8331 11.503 14.4297 12 14.4297H12.001L12.0928 14.4346ZM12.001 7.81055C12.415 7.81072 12.7509 8.14653 12.751 8.56055V12.7803C12.7509 13.1943 12.415 13.5301 12.001 13.5303C11.5868 13.5303 11.2511 13.1944 11.251 12.7803V8.56055C11.2511 8.14643 11.5868 7.81055 12.001 7.81055Z" fill="#344054"/>
</svg>
