<svg width="24" height="24" viewBox="0 0 24 24" fill="none" xmlns="http://www.w3.org/2000/svg">
<path d="M4.39841 4.39826C4.69123 4.10545 5.16605 4.1056 5.45896 4.39826L19.6015 18.5408C19.8942 18.8338 19.8944 19.3086 19.6015 19.6014C19.3087 19.8942 18.8339 19.8941 18.541 19.6014L16.2265 17.2869C14.9546 17.9234 13.5199 18.283 12 18.283C7.84393 18.283 4.31699 15.6057 3.04197 11.8846C2.98799 11.727 2.98892 11.5558 3.04294 11.3983C3.62584 9.69803 4.6795 8.21663 6.04783 7.10823L4.39841 5.45881C4.10575 5.1659 4.10561 4.69108 4.39841 4.39826ZM7.11521 8.17561C5.97017 9.0657 5.0739 10.2609 4.54978 11.6405C5.69071 14.6472 8.59569 16.783 12 16.783C13.0985 16.783 14.144 16.5587 15.0957 16.1561L12.7002 13.7606C12.4823 13.8322 12.2498 13.8719 12.0078 13.8719H11.9892C10.7579 13.8717 9.75974 12.8728 9.75974 11.6414C9.75978 11.3942 9.79957 11.1564 9.874 10.9344L7.11521 8.17561ZM12 5.0008C16.1555 5.00083 19.6805 7.67825 20.956 11.3983C21.0101 11.5558 21.011 11.727 20.957 11.8846C20.4769 13.2854 19.6771 14.5376 18.6455 15.5555L17.583 14.493C18.3939 13.6944 19.0366 12.725 19.4482 11.6405C18.3063 8.63544 15.4028 6.50082 12 6.5008L11.6738 6.50764C11.054 6.53261 10.4524 6.6282 9.87693 6.78694L8.68552 5.59651C9.71676 5.21091 10.8338 5.00082 12 5.0008Z" fill="#344054"/>
</svg>
