<svg width="24" height="24" viewBox="0 0 24 24" fill="none" xmlns="http://www.w3.org/2000/svg">
<path fill-rule="evenodd" clip-rule="evenodd" d="M20.956 11.3994C19.6805 7.67938 16.1555 5.00195 12 5.00195C7.84448 5.00202 4.3184 7.67908 3.04294 11.3994C2.98892 11.557 2.98799 11.7282 3.04197 11.8857C4.31699 15.6069 7.84392 18.2841 12 18.2842C16.1561 18.2842 19.6819 15.6065 20.957 11.8857C21.011 11.7281 21.0101 11.557 20.956 11.3994ZM4.54978 11.6416C5.65486 8.73288 8.41209 6.64022 11.6738 6.50879L12 6.50195C15.4028 6.50195 18.3063 8.63657 19.4482 11.6416C18.3071 14.6482 15.4039 16.7842 12 16.7842C8.59569 16.7841 5.69071 14.6484 4.54978 11.6416ZM11.9896 9.41309C10.7581 9.41309 9.75977 10.4114 9.75977 11.6429C9.75977 12.8744 10.7581 13.8727 11.9896 13.8727H12.0074C13.2389 13.8727 14.2372 12.8744 14.2372 11.6429C14.2372 10.4114 13.2389 9.41309 12.0074 9.41309H11.9896Z" fill="#344054"/>
</svg>
