<svg width="24" height="24" viewBox="0 0 24 24" fill="none" xmlns="http://www.w3.org/2000/svg">
<path d="M18.899 16.3748L21.1978 14.8748V18.3748L18.899 16.8748V16.3748Z" fill="#344054"/>
<path d="M12.0518 14.8447C12.0518 14.0163 12.7233 13.3447 13.5518 13.3447H17.399C18.2275 13.3447 18.899 14.0163 18.899 14.8447V18.4048C18.899 19.2332 18.2275 19.9048 17.399 19.9048H13.5518C12.7233 19.9048 12.0518 19.2332 12.0518 18.4048V14.8447Z" stroke="#344054" stroke-width="1.5" stroke-linejoin="round"/>
<path d="M18.899 16.3748L21.1978 14.8748V18.3748L18.899 16.8748V16.3748Z" stroke="#344054" stroke-width="1.5" stroke-linejoin="round"/>
<path d="M17.25 2C18.4926 2 19.5 3.00736 19.5 4.25V9.75H18V4.25C18 3.83579 17.6642 3.5 17.25 3.5H12.248L12.251 7.49902C12.2519 8.73574 11.2547 9.73945 10.0205 9.75H9.75V9.75098H6V19.75C6 20.1642 6.33579 20.5 6.75 20.5H9.75V22H6.75C5.50736 22 4.5 20.9926 4.5 19.75V9.62109C4.5 9.02461 4.73656 8.45219 5.1582 8.03027L10.5264 2.65918C10.9483 2.23707 11.5213 2 12.1182 2H17.25ZM7.05859 8.25098H10.001C10.4154 8.25093 10.7513 7.91439 10.751 7.5L10.748 4.55859L7.05859 8.25098Z" fill="#344054"/>
</svg>
