<svg width="24" height="24" viewBox="0 0 24 24" fill="none" xmlns="http://www.w3.org/2000/svg">
<path d="M17.25 2C18.4926 2 19.5 3.00736 19.5 4.25V11.7383H18V4.25C18 3.83579 17.6642 3.5 17.25 3.5H12.248L12.251 7.49902C12.2517 8.74215 11.2441 9.75093 10.001 9.75098H6V19.75C6 20.1642 6.33579 20.5 6.75 20.5H17.25C17.6642 20.5 18 20.1642 18 19.75V19.0059H10.5C9.67159 19.0059 9.00002 18.3343 9 17.5059V13.25C9 12.4216 9.67157 11.75 10.5 11.75H20.5C21.3284 11.75 22 12.4216 22 13.25V17.5059C22 18.3343 21.3284 19.0059 20.5 19.0059H19.5V19.75C19.5 20.9926 18.4926 22 17.25 22H6.75C5.50736 22 4.5 20.9926 4.5 19.75V9.62109C4.5 9.09917 4.68099 8.59561 5.00879 8.19531L5.1582 8.03027L10.5264 2.65918C10.9483 2.23707 11.5213 2 12.1182 2H17.25ZM10.4541 13.2607C10.4259 13.2607 10.4038 13.269 10.3877 13.2852C10.3716 13.3013 10.3633 13.3233 10.3633 13.3516V17.4023C10.3633 17.4305 10.3716 17.4526 10.3877 17.4688C10.4038 17.4849 10.4259 17.4932 10.4541 17.4932H11.4092C11.4374 17.4932 11.4595 17.4849 11.4756 17.4688C11.4917 17.4526 11.5 17.4305 11.5 17.4023V16.042C11.5 16.0219 11.5102 16.0117 11.5303 16.0117H12.1709C12.4651 16.0117 12.7255 15.9556 12.9512 15.8428C13.1769 15.7299 13.3526 15.5708 13.4775 15.3652C13.6025 15.1597 13.665 14.9214 13.665 14.6514C13.665 14.3773 13.6043 14.1354 13.4834 13.9258C13.3665 13.7122 13.199 13.5494 12.9814 13.4365C12.7638 13.3196 12.5118 13.2607 12.2256 13.2607H10.4541ZM14.0986 13.2607C14.0704 13.2607 14.0483 13.2691 14.0322 13.2852C14.0161 13.3013 14.0078 13.3233 14.0078 13.3516V17.4023C14.0078 17.4305 14.0161 17.4526 14.0322 17.4688C14.0484 17.4849 14.0704 17.4932 14.0986 17.4932H15.6523C15.9787 17.4932 16.2668 17.437 16.5166 17.3242C16.7704 17.2114 16.9665 17.0521 17.1035 16.8467C17.2406 16.6411 17.3096 16.4029 17.3096 16.1328V14.6211C17.3096 14.3512 17.2404 14.1137 17.1035 13.9082C16.9665 13.7026 16.7706 13.5426 16.5166 13.4297C16.2668 13.317 15.9786 13.2607 15.6523 13.2607H14.0986ZM17.835 13.2607C17.8068 13.2607 17.7847 13.269 17.7686 13.2852C17.7525 13.3013 17.7441 13.3234 17.7441 13.3516V17.4023C17.7441 17.4305 17.7525 17.4526 17.7686 17.4688C17.7847 17.4849 17.8068 17.4932 17.835 17.4932H18.79C18.8182 17.4932 18.8403 17.4849 18.8564 17.4688C18.8726 17.4526 18.8809 17.4306 18.8809 17.4023V15.8604C18.881 15.8405 18.8912 15.8301 18.9111 15.8301H20.0303C20.0583 15.83 20.0806 15.8227 20.0967 15.8066C20.1127 15.7906 20.12 15.7682 20.1201 15.7402V14.9541C20.1201 14.9261 20.1126 14.9038 20.0967 14.8877C20.0806 14.8717 20.0583 14.8634 20.0303 14.8633H18.9111C18.8911 14.8632 18.8809 14.853 18.8809 14.833V14.2646C18.8809 14.2445 18.8911 14.2344 18.9111 14.2344H20.7129C20.741 14.2344 20.7632 14.226 20.7793 14.21C20.7954 14.1938 20.8037 14.1718 20.8037 14.1436V13.3516C20.8037 13.3233 20.7954 13.3013 20.7793 13.2852C20.7632 13.2691 20.7411 13.2607 20.7129 13.2607H17.835ZM15.6885 14.2344C15.8335 14.2344 15.9504 14.2887 16.0391 14.3975C16.1277 14.5022 16.1728 14.6412 16.1729 14.8145V15.9395C16.1688 16.1127 16.1218 16.2535 16.0332 16.3623C15.9445 16.4671 15.8314 16.5195 15.6943 16.5195H15.1748C15.1546 16.5195 15.1445 16.5094 15.1445 16.4893V14.2646C15.1445 14.2445 15.1546 14.2344 15.1748 14.2344H15.6885ZM12.0381 14.2344C12.1872 14.2344 12.3059 14.2749 12.3945 14.3555C12.4872 14.4361 12.5342 14.5428 12.5342 14.6758C12.5341 14.8047 12.4872 14.9096 12.3945 14.9902C12.3059 15.0666 12.1871 15.1045 12.0381 15.1045H11.5303C11.5101 15.1045 11.5 15.0944 11.5 15.0742V14.2646C11.5 14.2445 11.5101 14.2344 11.5303 14.2344H12.0381ZM7.05859 8.25098H10.001C10.4153 8.25093 10.7511 7.91428 10.751 7.5L10.748 4.55859L7.05859 8.25098Z" fill="#344054"/>
</svg>
