<svg width="24" height="24" viewBox="0 0 24 24" fill="none" xmlns="http://www.w3.org/2000/svg">
<path d="M19.1562 4.93359C19.5705 4.93359 19.9062 5.26938 19.9062 5.68359V17.251C19.906 19.8741 17.7795 22.001 15.1562 22.001H7.79785L7.7207 21.9971C7.34264 21.9587 7.04808 21.6391 7.04785 21.251C7.04785 20.8627 7.34254 20.5433 7.7207 20.5049L7.79785 20.501H15.1562C16.951 20.501 18.406 19.0457 18.4062 17.251V5.68359C18.4062 5.26938 18.742 4.93359 19.1562 4.93359ZM14.6465 2.00098C15.889 2.00098 16.8963 3.00847 16.8965 4.25098V16.7373C16.8965 17.9799 15.8891 18.9873 14.6465 18.9873H6.3457C5.10313 18.9872 4.0957 17.9799 4.0957 16.7373V8.60449C4.0957 8.00813 4.33243 7.43556 4.75391 7.01367L9.10449 2.66113C9.52649 2.23887 10.0993 2.00098 10.6963 2.00098H14.6465ZM10.8281 6.48145C10.829 7.72466 9.82134 8.73335 8.57812 8.7334H5.5957V16.7373C5.5957 17.1515 5.93156 17.4872 6.3457 17.4873H14.6465C15.0607 17.4873 15.3965 17.1515 15.3965 16.7373V4.25098C15.3963 3.83689 15.0606 3.50098 14.6465 3.50098H10.8262L10.8281 6.48145ZM10.5723 14.3525C10.9505 14.3909 11.2461 14.7103 11.2461 15.0986C11.2461 15.487 10.9505 15.8063 10.5723 15.8447L10.4961 15.8486H7.98438C7.57016 15.8486 7.23438 15.5128 7.23438 15.0986C7.23438 14.6844 7.57016 14.3486 7.98438 14.3486H10.4961L10.5723 14.3525ZM13.084 11.8408C13.462 11.8794 13.7568 12.1987 13.7568 12.5869C13.7568 12.9751 13.462 13.2944 13.084 13.333L13.0068 13.3369H7.98438C7.57016 13.3369 7.23438 13.0011 7.23438 12.5869C7.23438 12.1727 7.57016 11.8369 7.98438 11.8369H13.0068L13.084 11.8408ZM6.65527 7.2334H8.57812C8.99249 7.23335 9.3284 6.8968 9.32812 6.48242L9.32617 4.55957L6.65527 7.2334Z" fill="#344054"/>
</svg>
