<svg width="24" height="24" viewBox="0 0 24 24" fill="none" xmlns="http://www.w3.org/2000/svg">
<path d="M17.25 2C18.4926 2 19.5 3.00736 19.5 4.25V9.75H18V4.25C18 3.83579 17.6642 3.5 17.25 3.5H12.248L12.251 7.49902C12.2517 8.73563 11.2547 9.73945 10.0205 9.75H9.75V9.75098H6V19.75C6 20.1642 6.33579 20.5 6.75 20.5H9.75V22H6.75C5.50736 22 4.5 20.9926 4.5 19.75V9.62109C4.5 9.09917 4.68099 8.59561 5.00879 8.19531L5.1582 8.03027L10.5264 2.65918C10.9483 2.23707 11.5213 2 12.1182 2H17.25ZM19.0762 11.9238C20.3188 11.9238 21.3262 12.9312 21.3262 14.1738V19.5977C21.3262 20.5525 20.5275 21.327 19.542 21.3271H13.709C12.7233 21.3271 11.9238 20.5526 11.9238 19.5977V14.1738C11.9238 12.9312 12.9312 11.9238 14.1738 11.9238H19.0762ZM14.1738 13.4238C13.7596 13.4238 13.4238 13.7596 13.4238 14.1738V17.9844L14.1885 17.5957C14.73 17.3198 15.3799 17.3312 15.9102 17.627L16.9678 18.2178C17.6853 18.6178 18.5926 18.4871 19.1592 17.9023L19.8262 17.2129V14.1738C19.8262 13.7596 19.4904 13.4238 19.0762 13.4238H14.1738ZM15.3799 14.499C15.7834 14.5399 16.0986 14.8806 16.0986 15.2949C16.0986 15.7092 15.7834 16.05 15.3799 16.0908L15.2988 16.0947H15.293C14.8511 16.0947 14.4932 15.7367 14.4932 15.2949C14.4932 14.8531 14.8511 14.4951 15.293 14.4951H15.2988L15.3799 14.499ZM7.05859 8.25098H10.001C10.4153 8.25093 10.7511 7.91428 10.751 7.5L10.748 4.55859L7.05859 8.25098Z" fill="#344054"/>
</svg>
