<svg width="24" height="24" viewBox="0 0 24 24" fill="none" xmlns="http://www.w3.org/2000/svg">
<path d="M9.50098 13.0801C11.3623 13.0801 12.9129 14.4062 13.2617 16.165H21.249C21.6632 16.165 21.999 16.5008 21.999 16.915C21.999 17.3293 21.6632 17.665 21.249 17.665H13.2617C12.9129 19.4238 11.3622 20.75 9.50098 20.75C7.63973 20.75 6.08906 19.4238 5.74023 17.665H2.74902C2.33481 17.665 1.99902 17.3293 1.99902 16.915C1.99902 16.5008 2.33481 16.165 2.74902 16.165H5.74023C6.08901 14.4062 7.63968 13.0801 9.50098 13.0801ZM9.50098 14.5801C8.21141 14.5801 7.16604 15.6255 7.16602 16.915C7.16606 18.2046 8.21142 19.25 9.50098 19.25C10.7905 19.25 11.8359 18.2046 11.8359 16.915C11.8359 15.6255 10.7905 14.5801 9.50098 14.5801ZM14.499 3.25C16.3603 3.25 17.911 4.57613 18.2598 6.33496H21.248C21.6623 6.33496 21.998 6.67075 21.998 7.08496C21.998 7.49917 21.6623 7.83496 21.248 7.83496H18.2598C17.911 9.59381 16.3603 10.9199 14.499 10.9199C12.6378 10.9199 11.0871 9.59379 10.7383 7.83496H2.74805C2.33383 7.83496 1.99805 7.49917 1.99805 7.08496C1.99805 6.67075 2.33383 6.33496 2.74805 6.33496H10.7383C11.0871 4.57614 12.6378 3.25002 14.499 3.25ZM14.499 4.75C13.2095 4.75002 12.1641 5.79541 12.1641 7.08496C12.1641 8.37453 13.2095 9.4199 14.499 9.41992C15.7886 9.41992 16.834 8.37455 16.834 7.08496C16.834 5.79539 15.7886 4.75 14.499 4.75Z" fill="#344054"/>
</svg>
