<svg width="24" height="24" viewBox="0 0 24 24" fill="none" xmlns="http://www.w3.org/2000/svg">
<path d="M11.05 6.9L10.45 7.35L11.05 6.9ZM9.7 5.1L9.1 5.55L10.45 7.35L11.05 6.9L11.65 6.45L10.3 4.65L9.7 5.1ZM12.25 7.5V8.25H19.75V7.5V6.75H12.25V7.5ZM21.25 9H20.5V18H21.25H22V9H21.25ZM19.75 19.5V18.75H4.25V19.5V20.25H19.75V19.5ZM2.75 18H3.5V6H2.75H2V18H2.75ZM4.25 4.5V5.25H8.5V4.5V3.75H4.25V4.5ZM2.75 6H3.5C3.5 5.58579 3.83579 5.25 4.25 5.25V4.5V3.75C3.00736 3.75 2 4.75736 2 6H2.75ZM4.25 19.5V18.75C3.83579 18.75 3.5 18.4142 3.5 18H2.75H2C2 19.2426 3.00736 20.25 4.25 20.25V19.5ZM21.25 18H20.5C20.5 18.4142 20.1642 18.75 19.75 18.75V19.5V20.25C20.9926 20.25 22 19.2426 22 18H21.25ZM19.75 7.5V8.25C20.1642 8.25 20.5 8.58579 20.5 9H21.25H22C22 7.75736 20.9926 6.75 19.75 6.75V7.5ZM11.05 6.9L10.45 7.35C10.8749 7.91656 11.5418 8.25 12.25 8.25V7.5V6.75C12.0139 6.75 11.7916 6.63885 11.65 6.45L11.05 6.9ZM9.7 5.1L10.3 4.65C9.87508 4.08344 9.2082 3.75 8.5 3.75V4.5V5.25C8.73607 5.25 8.95836 5.36115 9.1 5.55L9.7 5.1Z" fill="#344054"/>
</svg>
