<svg width="24" height="24" viewBox="0 0 24 24" fill="none" xmlns="http://www.w3.org/2000/svg">
<path d="M12.5146 2.01367C16.6543 2.22357 20.1269 4.95273 21.4375 8.69727C21.4514 8.72863 21.4611 8.76147 21.4707 8.79492C21.8113 9.80163 21.999 10.8793 21.999 12.001L21.9863 12.5156C21.9389 13.4505 21.7596 14.3503 21.4727 15.2002C21.4627 15.2361 21.4524 15.2712 21.4375 15.3047C20.0729 19.2033 16.3643 22.001 12 22.001C7.63896 22.001 3.93251 19.2075 2.56543 15.3135C2.54129 15.2611 2.52136 15.2064 2.50977 15.1484C2.18163 14.1585 2.00099 13.101 2.00098 12.001C2.00098 10.9007 2.18147 9.84272 2.50977 8.85254C2.52134 8.79485 2.54145 8.74056 2.56543 8.68848C3.93245 4.79433 7.63889 2.00099 12 2.00098L12.5146 2.01367ZM9.1084 15.751C9.2977 16.6917 9.55398 17.5343 9.86035 18.2432C10.1979 19.0241 10.581 19.6087 10.9678 19.9873C11.3032 20.3155 11.6115 20.4626 11.8848 20.4941L12 20.501C12.3008 20.501 12.6487 20.3626 13.0322 19.9873C13.4191 19.6087 13.802 19.0241 14.1396 18.2432C14.4461 17.5343 14.7023 16.6917 14.8916 15.751L9.1084 15.751ZM4.37207 15.751C5.33241 17.7009 7.01723 19.2299 9.07617 19.9844C8.85937 19.6342 8.66103 19.2498 8.4834 18.8389C8.09854 17.9486 7.79155 16.902 7.58008 15.751H4.37207ZM16.4199 15.751C16.2084 16.902 15.9015 17.9486 15.5166 18.8389C15.3389 19.25 15.1398 19.6341 14.9229 19.9844C16.9822 19.23 18.6674 17.7012 19.6279 15.751H16.4199ZM3.80469 9.75098C3.60836 10.4678 3.50098 11.2219 3.50098 12.001C3.50099 12.7801 3.60833 13.5341 3.80469 14.251H7.36719C7.29173 13.5261 7.25098 12.7721 7.25098 12C7.25099 11.2284 7.29182 10.4754 7.36719 9.75098H3.80469ZM8.87402 9.75098C8.79369 10.4659 8.75099 11.2196 8.75098 12C8.75098 12.781 8.79456 13.5355 8.875 14.251L15.126 14.251C15.1905 13.6774 15.2306 13.079 15.2441 12.4619L15.25 12C15.25 11.2196 15.2063 10.466 15.126 9.75098L8.87402 9.75098ZM16.6338 9.75098C16.7092 10.4753 16.75 11.2285 16.75 12L16.7441 12.4912C16.731 13.0923 16.6932 13.6805 16.6338 14.251H20.1953C20.3547 13.6691 20.4566 13.063 20.4883 12.4385L20.499 12.001C20.499 11.2219 20.3916 10.4678 20.1953 9.75098L16.6338 9.75098ZM9.07617 4.0166C7.01706 4.77108 5.33244 6.30087 4.37207 8.25098H7.58008C7.79156 7.09963 8.09841 6.05258 8.4834 5.16211C8.66106 4.7512 8.85933 4.36677 9.07617 4.0166ZM12 3.50098C11.6991 3.50099 11.3512 3.63863 10.9678 4.01367C10.5809 4.39214 10.198 4.97688 9.86035 5.75781C9.55383 6.46681 9.29773 7.30986 9.1084 8.25098L14.8916 8.25098C14.7022 7.30986 14.4462 6.46681 14.1396 5.75781C13.802 4.9769 13.4191 4.39214 13.0322 4.01367C12.6488 3.63867 12.3009 3.50098 12 3.50098ZM14.9229 4.0166C15.1398 4.36688 15.3388 4.75103 15.5166 5.16211C15.9016 6.05256 16.2084 7.09964 16.4199 8.25098H19.6279C18.6674 6.30059 16.9824 4.77096 14.9229 4.0166Z" fill="#344054"/>
</svg>
