<svg width="24" height="24" viewBox="0 0 24 24" fill="none" xmlns="http://www.w3.org/2000/svg">
<path d="M10.6504 3.70379C11.4503 3.10395 12.5497 3.10395 13.3496 3.70379L19.8496 8.57879C20.4162 9.00371 20.75 9.67039 20.75 10.3786V18.4997C20.75 19.7423 19.7426 20.7497 18.5 20.7497H5.5C4.25736 20.7497 3.25 19.7423 3.25 18.4997V10.3786C3.25 9.67039 3.58383 9.00371 4.15039 8.57879L10.6504 3.70379ZM12.4502 4.90398C12.1835 4.70398 11.8165 4.70398 11.5498 4.90398L5.0498 9.77898C4.86114 9.92064 4.75 10.1427 4.75 10.3786V18.4997C4.75 18.9139 5.08579 19.2497 5.5 19.2497H11.25V16.2497C11.25 15.8355 11.5858 15.4997 12 15.4997C12.4142 15.4997 12.75 15.8355 12.75 16.2497V19.2497H18.5C18.9142 19.2497 19.25 18.9139 19.25 18.4997V10.3786C19.25 10.1427 19.1389 9.92064 18.9502 9.77898L12.4502 4.90398Z" fill="#344054"/>
</svg>
