<svg width="24" height="24" viewBox="0 0 24 24" fill="none" xmlns="http://www.w3.org/2000/svg">
<path d="M19.75 4.5C20.9926 4.5 22 5.50736 22 6.75V17.25C22 18.4926 20.9926 19.5 19.75 19.5H4.25C3.00736 19.5 2 18.4926 2 17.25V6.75C2 5.50736 3.00736 4.5 4.25 4.5H19.75ZM4.25 6C3.83579 6 3.5 6.33579 3.5 6.75V17.25C3.5 17.6642 3.83579 18 4.25 18H19.75C20.1642 18 20.5 17.6642 20.5 17.25V6.75C20.5 6.33579 20.1642 6 19.75 6H4.25ZM9.66797 12.0869C10.904 12.0871 11.9062 13.0891 11.9062 14.3252V15.2559C11.9061 15.6698 11.5702 16.0057 11.1562 16.0059H5.75098C5.33688 16.0059 5.00116 15.6699 5.00098 15.2559V14.3252C5.00103 13.089 6.00311 12.087 7.23926 12.0869H9.66797ZM7.23926 13.5869C6.83154 13.587 6.50103 13.9175 6.50098 14.3252V14.5059H10.4062V14.3252C10.4062 13.9175 10.0756 13.5871 9.66797 13.5869H7.23926ZM16.1504 12.75C16.5646 12.75 16.9004 13.0858 16.9004 13.5C16.9004 13.9142 16.5646 14.25 16.1504 14.25H14.1504C13.7362 14.25 13.4004 13.9142 13.4004 13.5C13.4004 13.0858 13.7362 12.75 14.1504 12.75H16.1504ZM8.45312 8.24414C9.34573 8.24414 10.0693 8.96776 10.0693 9.86035C10.0693 10.753 9.34577 11.4766 8.45312 11.4766C7.56048 11.4766 6.83691 10.753 6.83691 9.86035C6.83698 8.96776 7.56052 8.24414 8.45312 8.24414ZM18.25 9.75C18.6642 9.75 19 10.0858 19 10.5C19 10.9142 18.6642 11.25 18.25 11.25H14.1504C13.7362 11.25 13.4004 10.9142 13.4004 10.5C13.4004 10.0858 13.7362 9.75 14.1504 9.75H18.25Z" fill="#344054"/>
</svg>
