<svg width="24" height="24" viewBox="0 0 24 24" fill="none" xmlns="http://www.w3.org/2000/svg">
<path d="M16.6543 1.5127C17.4101 1.58939 18.0001 2.22787 18 3.00391C17.9998 3.83135 17.3284 4.50195 16.501 4.50195H14.6094V6H16.75C19.6495 6 22 8.35051 22 11.25V17.25C22 18.4926 20.9926 19.5 19.75 19.5H4.25C3.00736 19.5 2 18.4926 2 17.25V11.375C2 8.40647 4.40647 6 7.375 6H13.1094V3.00488C13.1095 2.17659 13.7811 1.50495 14.6094 1.50488H16.501L16.6543 1.5127ZM7.375 7.5C5.2349 7.5 3.5 9.2349 3.5 11.375V17.25C3.5 17.6642 3.83579 18 4.25 18H11.25V11.375C11.25 9.2349 9.5151 7.5 7.375 7.5ZM11.0977 7.5C12.1155 8.47804 12.75 9.85198 12.75 11.375V18H19.75C20.1642 18 20.5 17.6642 20.5 17.25V11.25C20.5 9.17893 18.8211 7.5 16.75 7.5H11.0977Z" fill="#344054"/>
</svg>
