<svg width="24" height="24" viewBox="0 0 24 24" fill="none" xmlns="http://www.w3.org/2000/svg">
<path d="M15.873 3.03906C16.6769 3.0391 17.4204 3.46794 17.8223 4.16406L21.6963 10.875C22.0982 11.5711 22.0982 12.4289 21.6963 13.125L17.8223 19.8359C17.4204 20.5321 16.6769 20.9609 15.873 20.9609H8.12402C7.3203 20.9609 6.5777 20.5319 6.17578 19.8359L2.30078 13.125C1.89894 12.4289 1.89896 11.5711 2.30078 10.875L6.17578 4.16406C6.5777 3.46802 7.32028 3.03912 8.12402 3.03906H15.873ZM8.12402 4.53906C7.85615 4.53912 7.60856 4.68208 7.47461 4.91406L3.60059 11.625C3.46661 11.8571 3.46661 12.1429 3.60059 12.375L7.47461 19.0859C7.60857 19.3179 7.85616 19.4609 8.12402 19.4609H15.873C16.1409 19.4609 16.3885 19.3178 16.5225 19.0859L20.3975 12.375C20.5314 12.143 20.5313 11.857 20.3975 11.625L16.5225 4.91406C16.3885 4.68212 16.1409 4.5391 15.873 4.53906H8.12402ZM12 10.4639C12.4141 10.4639 12.7499 10.7998 12.75 11.2139V15.4385C12.75 15.8527 12.4142 16.1884 12 16.1885C11.5858 16.1885 11.25 15.8527 11.25 15.4385V11.2139C11.2501 10.7998 11.5859 10.4639 12 10.4639ZM12.0928 7.77441C12.5466 7.82055 12.9004 8.20397 12.9004 8.66992C12.9004 9.13588 12.5466 9.51929 12.0928 9.56543L12.001 9.57031H12C11.5029 9.57031 11.0996 9.16698 11.0996 8.66992C11.0996 8.17287 11.5029 7.76953 12 7.76953H12.001L12.0928 7.77441Z" fill="#344054"/>
</svg>
