<svg width="24" height="24" viewBox="0 0 24 24" fill="none" xmlns="http://www.w3.org/2000/svg">
<path d="M12 2C17.5228 2 22 6.47715 22 12C22 17.5228 17.5228 22 12 22C6.47715 22 2 17.5228 2 12C2 6.47715 6.47715 2 12 2ZM12 3.5C7.30558 3.5 3.5 7.30558 3.5 12C3.5 16.6944 7.30558 20.5 12 20.5C16.6944 20.5 20.5 16.6944 20.5 12C20.5 7.30558 16.6944 3.5 12 3.5ZM12 10.4639C12.4141 10.4639 12.7499 10.7998 12.75 11.2139V15.4385C12.75 15.8527 12.4142 16.1885 12 16.1885C11.5858 16.1885 11.25 15.8527 11.25 15.4385V11.2139C11.2501 10.7998 11.5859 10.4639 12 10.4639ZM12.0928 7.77441C12.5466 7.8205 12.9004 8.20393 12.9004 8.66992C12.9004 9.13591 12.5466 9.51934 12.0928 9.56543L12.001 9.57031H12C11.5029 9.57031 11.0996 9.16698 11.0996 8.66992C11.0996 8.17287 11.5029 7.76953 12 7.76953H12.001L12.0928 7.77441Z" fill="#344054"/>
</svg>
