<svg width="24" height="24" viewBox="0 0 24 24" fill="none" xmlns="http://www.w3.org/2000/svg">
<path d="M12 2C17.5228 2 22 6.47715 22 12C22 17.5228 17.5228 22 12 22C6.47715 22 2 17.5228 2 12C2 6.47715 6.47715 2 12 2ZM12 3.5C7.30558 3.5 3.5 7.30558 3.5 12C3.5 16.6944 7.30558 20.5 12 20.5C16.6944 20.5 20.5 16.6944 20.5 12C20.5 7.30558 16.6944 3.5 12 3.5ZM12 10.1953C12.4141 10.1953 12.7499 10.5312 12.75 10.9453V16.6221C12.75 17.0363 12.4142 17.3721 12 17.3721C11.5858 17.3721 11.25 17.0363 11.25 16.6221V10.9453C11.2501 10.5312 11.5859 10.1953 12 10.1953ZM12.1025 6.53027C12.6067 6.58159 13 7.00771 13 7.52539C13 8.04308 12.6067 8.46919 12.1025 8.52051L12 8.52539H11.999C11.4467 8.52539 10.999 8.07768 10.999 7.52539C10.999 6.97311 11.4467 6.52539 11.999 6.52539H12L12.1025 6.53027Z" fill="#344054"/>
</svg>
