<svg width="24" height="24" viewBox="0 0 24 24" fill="none" xmlns="http://www.w3.org/2000/svg">
<path d="M18.5 3.25C19.7426 3.25 20.75 4.25736 20.75 5.5V18.5C20.75 19.7426 19.7426 20.75 18.5 20.75H5.5C4.25736 20.75 3.25 19.7426 3.25 18.5V5.5C3.25 4.25736 4.25736 3.25 5.5 3.25H18.5ZM5.5 4.75C5.08579 4.75 4.75 5.08579 4.75 5.5V18.5C4.75 18.9142 5.08579 19.25 5.5 19.25H18.5C18.9142 19.25 19.25 18.9142 19.25 18.5V5.5C19.25 5.08579 18.9142 4.75 18.5 4.75H5.5ZM12 10.4639C12.4141 10.4639 12.7499 10.7998 12.75 11.2139V15.4385C12.75 15.8527 12.4142 16.1885 12 16.1885C11.5858 16.1885 11.25 15.8527 11.25 15.4385V11.2139C11.2501 10.7998 11.5859 10.4639 12 10.4639ZM12.0928 7.77441C12.5466 7.8205 12.9004 8.20393 12.9004 8.66992C12.9004 9.13591 12.5466 9.51934 12.0928 9.56543L12.001 9.57031H12C11.5029 9.57031 11.0996 9.16698 11.0996 8.66992C11.0996 8.17287 11.5029 7.76953 12 7.76953H12.001L12.0928 7.77441Z" fill="#344054"/>
</svg>
