<svg width="24" height="24" viewBox="0 0 24 24" fill="none" xmlns="http://www.w3.org/2000/svg">
<path d="M14.7959 3C15.3925 3.00006 15.9648 3.2373 16.3867 3.65918L20.3408 7.61328C20.7626 8.0352 21 8.60748 21 9.2041V14.7959C20.9999 15.3925 20.7627 15.9648 20.3408 16.3867L16.3867 20.3408C15.9648 20.7626 15.3925 21 14.7959 21H9.2041C8.60746 21 8.03519 20.7627 7.61328 20.3408L3.65918 16.3867C3.23736 15.9648 3.00002 15.3925 3 14.7959V9.2041C3.00005 8.60746 3.2373 8.03519 3.65918 7.61328L7.61328 3.65918C8.0352 3.23736 8.60747 3.00002 9.2041 3H14.7959ZM9.2041 4.5C9.00528 4.50001 8.81446 4.5792 8.67383 4.71973L4.71973 8.67383C4.57913 8.81443 4.50005 9.00527 4.5 9.2041V14.7959C4.50001 14.9947 4.5792 15.1855 4.71973 15.3262L8.67383 19.2803C8.81443 19.4209 9.00527 19.5 9.2041 19.5H14.7959C14.9947 19.5 15.1855 19.4208 15.3262 19.2803L19.2803 15.3262C19.4209 15.1856 19.4999 14.9947 19.5 14.7959V9.2041C19.5 9.00529 19.4208 8.81446 19.2803 8.67383L15.3262 4.71973C15.1856 4.57913 14.9947 4.50006 14.7959 4.5H9.2041ZM12 10.4639C12.4141 10.4639 12.7499 10.7998 12.75 11.2139V15.4385C12.75 15.8527 12.4142 16.1885 12 16.1885C11.5858 16.1885 11.25 15.8527 11.25 15.4385V11.2139C11.2501 10.7998 11.5859 10.4639 12 10.4639ZM12.0928 7.77441C12.5466 7.82051 12.9004 8.20394 12.9004 8.66992C12.9004 9.1359 12.5466 9.51934 12.0928 9.56543L12.001 9.57031H12C11.5029 9.57031 11.0996 9.16697 11.0996 8.66992C11.0996 8.17287 11.5029 7.76953 12 7.76953H12.001L12.0928 7.77441Z" fill="#344054"/>
</svg>
