<svg width="24" height="24" viewBox="0 0 24 24" fill="none" xmlns="http://www.w3.org/2000/svg">
<path d="M7.75638 9.87903L5.9888 11.6466C4.23145 13.404 4.23145 16.2535 5.9888 18.0109C7.74617 19.7681 10.5957 19.7682 12.3531 18.0109L14.1197 16.2423L15.1802 17.3029L13.4136 19.0714C11.0705 21.4145 7.27141 21.4145 4.92826 19.0714C2.58511 16.7283 2.58511 12.9292 4.92826 10.5861L6.69584 8.81849L7.75638 9.87903ZM10.5855 4.92884C12.9285 2.58622 16.7268 2.58622 19.0699 4.92884C21.413 7.27198 21.413 11.071 19.0699 13.4142L17.3013 15.1818L16.2408 14.1212L18.0093 12.3536C19.7667 10.5963 19.7667 7.74674 18.0093 5.98938C16.2521 4.23255 13.4033 4.23255 11.646 5.98938L9.87748 7.75794L8.81693 6.69739L10.5855 4.92884ZM13.5904 9.34876C13.8833 9.05587 14.358 9.05587 14.6509 9.34876C14.9438 9.64165 14.9438 10.1164 14.6509 10.4093L10.4087 14.6525C10.1158 14.9453 9.64008 14.9454 9.3472 14.6525C9.05432 14.3596 9.05435 13.8838 9.3472 13.5909L13.5904 9.34876Z" fill="#344054"/>
</svg>
