<svg width="44" height="44" viewBox="0 0 44 44" fill="none" xmlns="http://www.w3.org/2000/svg">
<path d="M8 0.5H36C40.1421 0.5 43.5 3.85786 43.5 8V36C43.5 40.1421 40.1421 43.5 36 43.5H8C3.85786 43.5 0.5 40.1421 0.5 36V8C0.5 3.85786 3.85786 0.5 8 0.5Z" stroke="#E4E7EC"/>
<g clip-path="url(#clip0_1345_10853)">
<path d="M38.038 21.9994C38.038 30.4918 31.4371 37.4412 23.0862 38L23.0859 25H29.9154L23.0863 12.3136L23.0862 6C31.4371 6.55884 38.038 13.5071 38.038 21.9994Z" fill="url(#paint0_linear_1345_10853)"/>
<path d="M20.9138 12.3136L14.0844 25H20.9138V38C12.5628 37.4412 5.96191 30.4907 5.96191 21.9994C5.96191 13.5082 12.5628 6.55884 20.9138 6V12.3136Z" fill="url(#paint1_linear_1345_10853)"/>
</g>
<defs>
<linearGradient id="paint0_linear_1345_10853" x1="30.5621" y1="6" x2="30.5621" y2="38" gradientUnits="userSpaceOnUse">
<stop stop-color="#DEE3EC"/>
<stop offset="1" stop-color="#C1C8D9"/>
</linearGradient>
<linearGradient id="paint1_linear_1345_10853" x1="13.4379" y1="6" x2="13.4379" y2="38" gradientUnits="userSpaceOnUse">
<stop stop-color="#155DFC"/>
<stop offset="1" stop-color="#5BCAFA"/>
</linearGradient>
<clipPath id="clip0_1345_10853">
<rect width="32.0758" height="32" fill="white" transform="translate(5.96191 6)"/>
</clipPath>
</defs>
</svg>
