<svg width="24" height="24" viewBox="0 0 24 24" fill="none" xmlns="http://www.w3.org/2000/svg">
<path d="M18.501 3.24609C19.7434 3.24631 20.7509 4.25363 20.751 5.49609V18.4971C20.7509 19.7395 19.7434 20.7469 18.501 20.7471H15.1006C13.858 20.7471 12.8506 19.7397 12.8506 18.4971V14.2451H14.3506V18.4971C14.3506 18.9112 14.6864 19.2471 15.1006 19.2471H18.501C18.915 19.2469 19.2509 18.9111 19.251 18.4971V5.49609C19.2509 5.08206 18.915 4.74631 18.501 4.74609H15.1006C14.6864 4.74609 14.3506 5.08193 14.3506 5.49609V9.74512H12.8506V5.49609C12.8506 4.2535 13.858 3.24609 15.1006 3.24609H18.501ZM8.0957 6.84473C8.38851 6.552 8.86334 6.55203 9.15625 6.84473C9.44898 7.13754 9.44895 7.61237 9.15625 7.90527L5.81445 11.248H16.001C16.4152 11.248 16.751 11.5838 16.751 11.998C16.751 12.4123 16.4152 12.748 16.001 12.748H5.81055L9.15625 16.0947L9.20801 16.1514C9.44824 16.4459 9.43074 16.8807 9.15625 17.1553C8.88165 17.4297 8.44684 17.4472 8.15234 17.207L8.0957 17.1553L3.47363 12.5303C3.33647 12.3944 3.25098 12.2064 3.25098 11.998C3.25098 11.7782 3.34737 11.5825 3.49805 11.4453L8.0957 6.84473Z" fill="#344054"/>
</svg>
