<svg width="24" height="24" viewBox="0 0 24 24" fill="none" xmlns="http://www.w3.org/2000/svg">
<path d="M11.7461 3C12.1603 3 12.4961 3.33579 12.4961 3.75V17.9453L17.2197 13.2246C17.5127 12.9319 17.9875 12.9319 18.2803 13.2246C18.573 13.5175 18.573 13.9923 18.2803 14.2852L12.2803 20.2812L12.2227 20.333C12.2072 20.3456 12.189 20.3541 12.1729 20.3652C12.1667 20.3695 12.1606 20.3738 12.1543 20.3779C12.122 20.3988 12.0892 20.4172 12.0547 20.4326C12.0434 20.4377 12.0321 20.4427 12.0205 20.4473C11.9881 20.4598 11.9554 20.4696 11.9219 20.4775C11.9031 20.4821 11.8845 20.4872 11.8652 20.4902C11.8564 20.4916 11.8477 20.4931 11.8389 20.4941C11.8084 20.4979 11.7776 20.501 11.7461 20.501C11.7376 20.501 11.7292 20.4993 11.7207 20.499C11.7158 20.4988 11.711 20.4983 11.7061 20.498C11.6639 20.4958 11.623 20.4903 11.583 20.4814C11.5751 20.4796 11.5675 20.4767 11.5596 20.4746C11.418 20.4382 11.2936 20.3628 11.1973 20.2588L5.21974 14.2852L5.16798 14.2285C4.92779 13.934 4.9453 13.4992 5.21974 13.2246C5.49431 12.9501 5.92906 12.9326 6.22365 13.1729L6.28029 13.2246L10.9961 17.9375V3.75C10.9961 3.33579 11.3319 3 11.7461 3Z" fill="#344054"/>
</svg>
