<svg width="24" height="24" viewBox="0 0 24 24" fill="none" xmlns="http://www.w3.org/2000/svg">
<path d="M14.748 19C15.1621 18.9999 15.4978 18.6638 15.498 18.25C15.4979 17.862 15.2033 17.5415 14.8252 17.5029L14.748 17.5L7.55762 17.499L18.2773 6.7793C18.5701 6.48639 18.5702 6.0116 18.2773 5.71875C17.9845 5.42591 17.5097 5.426 17.2168 5.71875L6.50098 16.4346L6.5 9.25488L6.49609 9.17773C6.45716 8.80023 6.13788 8.50599 5.75 8.50586C5.36178 8.50603 5.0424 8.80083 5.00391 9.17871L4.99902 9.25586L5.00195 18.2256C4.99856 18.3564 5.03099 18.4866 5.0957 18.6045C5.10276 18.6174 5.10843 18.6311 5.11621 18.6436L5.125 18.6582C5.15239 18.6996 5.18424 18.7389 5.2207 18.7754C5.24404 18.7987 5.26849 18.8202 5.29395 18.8398C5.29652 18.8418 5.29916 18.8437 5.30176 18.8457C5.32351 18.862 5.3471 18.875 5.37012 18.8887C5.39425 18.9031 5.41854 18.917 5.44434 18.9287C5.46069 18.936 5.4774 18.9421 5.49414 18.9482C5.52341 18.959 5.55313 18.9685 5.58398 18.9756C5.59953 18.9791 5.61516 18.9818 5.63086 18.9844C5.64572 18.9868 5.66064 18.9906 5.67578 18.9922L5.75293 18.9971L14.748 19Z" fill="#344054"/>
</svg>
