<svg width="24" height="24" viewBox="0 0 24 24" fill="none" xmlns="http://www.w3.org/2000/svg">
<path d="M17.744 18.9971L17.8212 18.9922C17.836 18.9907 17.8505 18.9867 17.8651 18.9844C17.8808 18.9819 17.8964 18.9791 17.912 18.9756C17.9429 18.9685 17.9725 18.959 18.0018 18.9482C18.0186 18.9422 18.0352 18.936 18.0516 18.9287C18.0774 18.9171 18.1017 18.9031 18.1258 18.8887C18.1489 18.875 18.1724 18.862 18.1942 18.8457C18.1968 18.8437 18.1994 18.8418 18.202 18.8398C18.2277 18.8201 18.2527 18.7989 18.2762 18.7754C18.2819 18.7697 18.2873 18.7637 18.2928 18.7578C18.2969 18.7534 18.3006 18.7486 18.3046 18.7441C18.3317 18.7138 18.3555 18.6817 18.3768 18.6484C18.3857 18.6344 18.3923 18.6191 18.4003 18.6045C18.4651 18.4865 18.4974 18.3566 18.494 18.2256L18.4979 9.25586L18.493 9.17871C18.4545 8.80083 18.1351 8.50603 17.7469 8.50586C17.3591 8.50599 17.0398 8.80023 17.0008 9.17773L16.9969 9.25488L16.995 16.4346L6.28014 5.71875C5.98723 5.42599 5.51244 5.4259 5.21959 5.71875C4.92677 6.0116 4.92684 6.4864 5.21959 6.7793L15.9383 17.499L8.74889 17.5L8.67174 17.5029C8.29366 17.5415 7.999 17.862 7.99889 18.25C7.99918 18.6638 8.33488 18.9999 8.74889 19L17.744 18.9971Z" fill="#344054"/>
</svg>
