<svg width="24" height="24" viewBox="0 0 24 24" fill="none" xmlns="http://www.w3.org/2000/svg">
<path d="M9.52246 5.41798C9.81696 5.17779 10.2518 5.1953 10.5264 5.46974C10.8009 5.74431 10.8184 6.17906 10.5781 6.47365L10.5264 6.53029L5.81348 11.2461H20.001C20.4152 11.2461 20.751 11.5819 20.751 11.9961C20.751 12.4103 20.4152 12.7461 20.001 12.7461H5.80566L10.5264 17.4697C10.8191 17.7627 10.8191 18.2375 10.5264 18.5303C10.2334 18.823 9.75863 18.823 9.46582 18.5303L3.46973 12.5303L3.41797 12.4727C3.40527 12.4571 3.39602 12.4392 3.38477 12.4229C3.38048 12.4167 3.37617 12.4106 3.37207 12.4043C3.35123 12.372 3.33276 12.3392 3.31738 12.3047C3.31227 12.2934 3.30729 12.2821 3.30273 12.2705C3.2902 12.2382 3.28034 12.2054 3.27246 12.1719C3.26795 12.1532 3.26284 12.1345 3.25977 12.1152C3.2584 12.1065 3.25691 12.0977 3.25586 12.0889C3.25211 12.0585 3.25 12.0275 3.25 11.9961C3.25 11.9876 3.2507 11.9792 3.25098 11.9707C3.25117 11.9658 3.25167 11.961 3.25195 11.9561C3.26255 11.7548 3.35266 11.5758 3.49121 11.4473L9.46582 5.46974L9.52246 5.41798Z" fill="#344054"/>
</svg>
