<svg width="24" height="24" viewBox="0 0 24 24" fill="none" xmlns="http://www.w3.org/2000/svg">
<path d="M17.995 5.25293L18.0721 5.25781C18.0869 5.25933 18.1015 5.26326 18.1161 5.26562C18.1318 5.26814 18.1474 5.2709 18.1629 5.27441C18.1938 5.28148 18.2235 5.29101 18.2528 5.30176C18.2695 5.30784 18.2862 5.31397 18.3026 5.32129C18.3284 5.33294 18.3527 5.34694 18.3768 5.36133C18.3999 5.37495 18.4234 5.38799 18.4452 5.4043C18.4478 5.40626 18.4504 5.40816 18.453 5.41016C18.4787 5.4299 18.5037 5.45109 18.5272 5.47461C18.5329 5.48032 18.5383 5.48634 18.5438 5.49219C18.5479 5.49658 18.5515 5.50137 18.5555 5.50586C18.5827 5.53617 18.6065 5.56826 18.6278 5.60156C18.6367 5.61557 18.6432 5.63089 18.6512 5.64551C18.7161 5.76349 18.7484 5.89339 18.745 6.02441L18.7489 14.9941L18.744 15.0713C18.7055 15.4492 18.3861 15.744 17.9979 15.7441C17.61 15.744 17.2907 15.4498 17.2518 15.0723L17.2479 14.9951L17.246 7.81543L6.53111 18.5312C6.23821 18.824 5.76341 18.8241 5.47057 18.5312C5.17774 18.2384 5.17782 17.7636 5.47057 17.4707L16.1893 6.75098L8.99986 6.75L8.92271 6.74707C8.54464 6.70853 8.24997 6.388 8.24986 6C8.25016 5.58615 8.58586 5.2501 8.99986 5.25L17.995 5.25293Z" fill="#344054"/>
</svg>
