<svg width="24" height="24" viewBox="0 0 24 24" fill="none" xmlns="http://www.w3.org/2000/svg">
<path d="M13.4746 5.46974C13.7492 5.1953 14.184 5.17779 14.4785 5.41798L14.5352 5.46974L20.5088 11.4473C20.6128 11.5436 20.6882 11.668 20.7246 11.8096C20.7267 11.8175 20.7296 11.8251 20.7314 11.833C20.7403 11.873 20.7458 11.9139 20.748 11.9561C20.7483 11.961 20.7488 11.9658 20.749 11.9707C20.7493 11.9792 20.751 11.9876 20.751 11.9961C20.751 12.0276 20.7479 12.0584 20.7441 12.0889C20.7431 12.0977 20.7416 12.1064 20.7402 12.1152C20.7372 12.1345 20.7321 12.1531 20.7275 12.1719C20.7196 12.2054 20.7098 12.2381 20.6973 12.2705C20.6927 12.2821 20.6877 12.2934 20.6826 12.3047C20.6672 12.3392 20.6488 12.372 20.6279 12.4043C20.6238 12.4106 20.6195 12.4167 20.6152 12.4229C20.6041 12.439 20.5956 12.4572 20.583 12.4727L20.5312 12.5303L14.5352 18.5303C14.2423 18.823 13.7675 18.823 13.4746 18.5303C13.1819 18.2375 13.1819 17.7627 13.4746 17.4697L18.1953 12.7461H4C3.58579 12.7461 3.25 12.4103 3.25 11.9961C3.25 11.5819 3.58579 11.2461 4 11.2461H18.1875L13.4746 6.53029L13.4229 6.47365C13.1826 6.17906 13.2001 5.74431 13.4746 5.46974Z" fill="#344054"/>
</svg>
