<svg width="24" height="24" viewBox="0 0 24 24" fill="none" xmlns="http://www.w3.org/2000/svg">
<path d="M12.2461 3.49902C12.2775 3.49902 12.3085 3.50113 12.3389 3.50488C12.3477 3.50593 12.3565 3.50743 12.3652 3.50879C12.3845 3.51186 12.4032 3.51698 12.4219 3.52148C12.4554 3.52937 12.4882 3.53922 12.5205 3.55176C12.5321 3.55632 12.5434 3.5613 12.5547 3.56641C12.5892 3.58179 12.622 3.60025 12.6543 3.62109C12.6606 3.62519 12.6667 3.62951 12.6729 3.63379C12.6892 3.64505 12.7071 3.65429 12.7227 3.66699L12.7803 3.71875L18.7803 9.71484C19.073 10.0077 19.073 10.4825 18.7803 10.7754C18.4875 11.0682 18.0127 11.0681 17.7197 10.7754L12.9961 6.05371L12.9961 20.25C12.9961 20.6642 12.6603 21 12.2461 21C11.8319 21 11.4961 20.6642 11.4961 20.25L11.4961 6.06152L6.78029 10.7754L6.72365 10.8271C6.42906 11.0674 5.99431 11.0499 5.71974 10.7754C5.4453 10.5008 5.42779 10.066 5.66798 9.77148L5.71974 9.71484L11.6973 3.74023C11.8258 3.60169 12.0048 3.51157 12.2061 3.50098C12.211 3.50069 12.2158 3.50019 12.2207 3.5C12.2292 3.49972 12.2376 3.49902 12.2461 3.49902Z" fill="#344054"/>
</svg>
