<svg width="24" height="24" viewBox="0 0 24 24" fill="none" xmlns="http://www.w3.org/2000/svg">
<path d="M14.999 5.24902C15.413 5.24912 15.7487 5.58517 15.749 5.99902C15.7489 6.38703 15.4542 6.70755 15.0762 6.74609L14.999 6.74902L7.80859 6.75L18.5283 17.4697C18.8211 17.7626 18.8212 18.2374 18.5283 18.5303C18.2355 18.8231 17.7607 18.823 17.4678 18.5303L6.75195 7.81445L6.75098 14.9941L6.74707 15.0713C6.70814 15.4488 6.38885 15.743 6.00098 15.7432C5.61276 15.743 5.29337 15.4482 5.25488 15.0703L5.25 14.9932L5.25293 6.02344C5.24954 5.89258 5.28197 5.7624 5.34668 5.64453C5.35374 5.6316 5.3594 5.61793 5.36719 5.60547L5.37598 5.59082C5.40336 5.54942 5.43521 5.5101 5.47168 5.47363C5.49501 5.4503 5.51946 5.42879 5.54492 5.40918C5.5475 5.40719 5.55013 5.40528 5.55273 5.40332C5.57449 5.38701 5.59808 5.37399 5.62109 5.36035C5.64523 5.34595 5.66952 5.33198 5.69531 5.32031C5.71167 5.31298 5.72838 5.30688 5.74512 5.30078C5.77439 5.29 5.8041 5.28054 5.83496 5.27344C5.8505 5.2699 5.86614 5.26719 5.88184 5.26465C5.8967 5.26221 5.91162 5.25838 5.92676 5.25684L6.00391 5.25195L14.999 5.24902Z" fill="#344054"/>
</svg>
