<svg width="24" height="24" viewBox="0 0 24 24" fill="none" xmlns="http://www.w3.org/2000/svg">
<path d="M5.62305 17.2568C6.2534 17.3208 6.74512 17.8528 6.74512 18.5C6.74512 19.1472 6.2534 19.6792 5.62305 19.7432L5.49512 19.75H5.48535C4.795 19.75 4.23535 19.1904 4.23535 18.5C4.23535 17.8096 4.795 17.25 5.48535 17.25H5.49512L5.62305 17.2568ZM12.1328 17.2568C12.7632 17.3208 13.2549 17.8528 13.2549 18.5C13.2549 19.1472 12.7632 19.6792 12.1328 19.7432L12.0049 19.75H11.9951C11.3048 19.75 10.7451 19.1904 10.7451 18.5C10.7451 17.8096 11.3048 17.25 11.9951 17.25H12.0049L12.1328 17.2568ZM18.6426 17.2568C19.2729 17.3208 19.7646 17.8528 19.7646 18.5C19.7646 19.1472 19.2729 19.6792 18.6426 19.7432L18.5146 19.75H18.5049C17.8145 19.75 17.2549 19.1904 17.2549 18.5C17.2549 17.8096 17.8145 17.25 18.5049 17.25H18.5146L18.6426 17.2568ZM5.62305 10.7568C6.2534 10.8208 6.74512 11.3528 6.74512 12C6.74512 12.6472 6.2534 13.1792 5.62305 13.2432L5.49512 13.25H5.48535C4.795 13.25 4.23535 12.6904 4.23535 12C4.23535 11.3096 4.795 10.75 5.48535 10.75H5.49512L5.62305 10.7568ZM12.1328 10.7568C12.7632 10.8208 13.2549 11.3528 13.2549 12C13.2549 12.6472 12.7632 13.1792 12.1328 13.2432L12.0049 13.25H11.9951C11.3048 13.25 10.7451 12.6904 10.7451 12C10.7451 11.3096 11.3048 10.75 11.9951 10.75H12.0049L12.1328 10.7568ZM18.6426 10.7568C19.2729 10.8208 19.7646 11.3528 19.7646 12C19.7646 12.6472 19.2729 13.1792 18.6426 13.2432L18.5146 13.25H18.5049C17.8145 13.25 17.2549 12.6904 17.2549 12C17.2549 11.3096 17.8145 10.75 18.5049 10.75H18.5146L18.6426 10.7568ZM5.62305 4.25684C6.2534 4.32082 6.74512 4.85277 6.74512 5.5C6.74512 6.14723 6.2534 6.67918 5.62305 6.74316L5.49512 6.75H5.48535C4.795 6.75 4.23535 6.19036 4.23535 5.5C4.23535 4.80964 4.795 4.25 5.48535 4.25H5.49512L5.62305 4.25684ZM12.1328 4.25684C12.7632 4.32082 13.2549 4.85277 13.2549 5.5C13.2549 6.14723 12.7632 6.67918 12.1328 6.74316L12.0049 6.75H11.9951C11.3048 6.75 10.7451 6.19036 10.7451 5.5C10.7451 4.80964 11.3048 4.25 11.9951 4.25H12.0049L12.1328 4.25684ZM18.6426 4.25684C19.2729 4.32082 19.7646 4.85277 19.7646 5.5C19.7646 6.14723 19.2729 6.67918 18.6426 6.74316L18.5146 6.75H18.5049C17.8145 6.75 17.2549 6.19036 17.2549 5.5C17.2549 4.80964 17.8145 4.25 18.5049 4.25H18.5146L18.6426 4.25684Z" fill="#344054"/>
</svg>
