<svg width="24" height="24" viewBox="0 0 24 24" fill="none" xmlns="http://www.w3.org/2000/svg">
<path d="M12.1826 16.2588C13.0653 16.3482 13.7539 17.0937 13.7539 18C13.7539 18.9063 13.0653 19.6518 12.1826 19.7412L12.0039 19.75H11.9941C11.0276 19.75 10.2441 18.9665 10.2441 18C10.2441 17.0335 11.0276 16.25 11.9941 16.25H12.0039L12.1826 16.2588ZM12.1826 10.2588C13.0653 10.3482 13.7539 11.0937 13.7539 12C13.7539 12.9063 13.0653 13.6518 12.1826 13.7412L12.0039 13.75H11.9941C11.0276 13.75 10.2441 12.9665 10.2441 12C10.2441 11.0335 11.0276 10.25 11.9941 10.25H12.0039L12.1826 10.2588ZM12.1826 4.25879C13.0653 4.34819 13.7539 5.09375 13.7539 6C13.7539 6.90625 13.0653 7.65181 12.1826 7.74121L12.0039 7.75H11.9941C11.0276 7.75 10.2441 6.9665 10.2441 6C10.2441 5.0335 11.0276 4.25 11.9941 4.25H12.0039L12.1826 4.25879Z" fill="#344054"/>
</svg>
