<svg width="24" height="24" viewBox="0 0 24 24" fill="none" xmlns="http://www.w3.org/2000/svg">
<path d="M5.99902 10.2451C6.96552 10.2451 7.74902 11.0286 7.74902 11.9951V12.0049L7.74023 12.1836C7.65083 13.0663 6.90528 13.7549 5.99902 13.7549C5.09277 13.7549 4.34721 13.0663 4.25781 12.1836L4.24902 12.0049V11.9951C4.24902 11.0286 5.03253 10.2451 5.99902 10.2451ZM11.999 10.2451C12.9655 10.2451 13.749 11.0286 13.749 11.9951V12.0049L13.7402 12.1836C13.6508 13.0663 12.9053 13.7549 11.999 13.7549C11.0928 13.7549 10.3472 13.0663 10.2578 12.1836L10.249 12.0049V11.9951C10.249 11.0286 11.0325 10.2451 11.999 10.2451ZM17.999 10.2451C18.9655 10.2451 19.749 11.0286 19.749 11.9951V12.0049L19.7402 12.1836C19.6508 13.0663 18.9053 13.7549 17.999 13.7549C17.0928 13.7549 16.3472 13.0663 16.2578 12.1836L16.249 12.0049V11.9951C16.249 11.0286 17.0325 10.2451 17.999 10.2451Z" fill="#344054"/>
</svg>
