<svg width="24" height="24" viewBox="0 0 24 24" fill="none" xmlns="http://www.w3.org/2000/svg">
<path d="M20.0771 17.2539C20.4551 17.2925 20.75 17.6118 20.75 18C20.75 18.3882 20.4551 18.7075 20.0771 18.7461L20 18.75H4C3.58579 18.75 3.25 18.4142 3.25 18C3.25 17.5858 3.58579 17.25 4 17.25H20L20.0771 17.2539ZM12.0771 11.2539C12.4551 11.2925 12.75 11.6118 12.75 12C12.75 12.3882 12.4551 12.7075 12.0771 12.7461L12 12.75H4C3.58579 12.75 3.25 12.4142 3.25 12C3.25 11.5858 3.58579 11.25 4 11.25H12L12.0771 11.2539ZM20.0771 5.25391C20.4551 5.29253 20.75 5.61183 20.75 6C20.75 6.38817 20.4551 6.70747 20.0771 6.74609L20 6.75H4C3.58579 6.75 3.25 6.41421 3.25 6C3.25 5.58579 3.58579 5.25 4 5.25H20L20.0771 5.25391Z" fill="#344054"/>
</svg>
