<svg width="24" height="24" viewBox="0 0 24 24" fill="none" xmlns="http://www.w3.org/2000/svg">
<path d="M20.2637 4.5C21.1959 4.5 21.955 5.23508 21.9961 6.15723C21.9987 6.18259 22 6.20833 22 6.23438V17.25C22 18.4926 20.9926 19.5 19.75 19.5H4.25C3.00736 19.5 2 18.4926 2 17.25V6.23438C2 6.208 2.00125 6.18193 2.00391 6.15625C2.0455 5.23476 2.80357 4.50013 3.73535 4.5H20.2637ZM13.2871 13.2168C12.5138 13.756 11.4862 13.756 10.7129 13.2168L3.5 8.18652V17.25C3.5 17.6642 3.83579 18 4.25 18H19.75C20.1642 18 20.5 17.6642 20.5 17.25V8.18652L13.2871 13.2168ZM3.73535 6C3.60543 6.00013 3.50013 6.10544 3.5 6.23535C3.50003 6.31226 3.53757 6.38465 3.60059 6.42871L11.5713 11.9863C11.829 12.1661 12.171 12.166 12.4287 11.9863L20.3984 6.42871L20.4414 6.39062C20.4785 6.34814 20.5 6.29303 20.5 6.23535L20.4951 6.18848C20.4732 6.08093 20.3777 6 20.2637 6H3.73535Z" fill="#344054"/>
</svg>
