<svg width="24" height="24" viewBox="0 0 24 24" fill="none" xmlns="http://www.w3.org/2000/svg">
<path d="M19 10.5C19.4142 10.5 19.75 10.8358 19.75 11.25C19.75 15.2772 16.6782 18.5856 12.75 18.9629V20.5H14L14.0771 20.5039C14.4551 20.5425 14.75 20.8618 14.75 21.25C14.75 21.6382 14.4551 21.9575 14.0771 21.9961L14 22H10C9.58579 22 9.25 21.6642 9.25 21.25C9.25 20.8358 9.58579 20.5 10 20.5H11.25V18.9629C7.32176 18.5856 4.25 15.2772 4.25 11.25C4.25 10.8358 4.58579 10.5 5 10.5C5.41421 10.5 5.75 10.8358 5.75 11.25C5.75 14.7018 8.54822 17.5 12 17.5C15.4518 17.5 18.25 14.7018 18.25 11.25C18.25 10.8358 18.5858 10.5 19 10.5ZM12 2C14.6233 2.00002 16.75 4.12667 16.75 6.75V11.25C16.75 13.8733 14.6233 16 12 16C9.37669 16 7.25 13.8733 7.25 11.25V6.75C7.25 4.12668 9.37669 2.00003 12 2ZM12 3.5C10.2051 3.50003 8.75 4.95511 8.75 6.75V11.25C8.75 13.0449 10.2051 14.5 12 14.5C13.7949 14.5 15.25 13.0449 15.25 11.25V6.75C15.25 4.9551 13.7949 3.50002 12 3.5Z" fill="#344054"/>
</svg>
