<svg width="24" height="24" viewBox="0 0 24 24" fill="none" xmlns="http://www.w3.org/2000/svg">
<path d="M19.9443 3.25206C20.1367 3.23773 20.3284 3.29847 20.4785 3.42296C20.6502 3.56545 20.75 3.777 20.75 4.00011V14.5216C20.75 14.5334 20.7486 14.5451 20.748 14.5567C20.7284 15.3681 20.2892 16.051 19.6855 16.5108C19.0686 16.9809 18.2492 17.2501 17.375 17.2501C16.5008 17.2501 15.6814 16.9809 15.0645 16.5108C14.4468 16.0403 14 15.3363 14 14.5001C14 13.6639 14.4468 12.9599 15.0645 12.4894C15.6814 12.0193 16.5008 11.7501 17.375 11.7501C18.0571 11.7501 18.7048 11.9158 19.25 12.211V8.60851L8.75 10.6192V16.7716C8.74999 16.7834 8.74859 16.7951 8.74805 16.8067C8.72838 17.6181 8.28916 18.301 7.68555 18.7608C7.06856 19.2309 6.24922 19.5001 5.375 19.5001C4.50079 19.5001 3.68144 19.2309 3.06445 18.7608C2.44684 18.2903 2 17.5863 2 16.7501C2 15.9139 2.44684 15.2099 3.06445 14.7394C3.68144 14.2693 4.50079 14.0001 5.375 14.0001C6.05707 14.0001 6.70478 14.1658 7.25 14.461V6.25011L7.26172 6.1173C7.31583 5.81556 7.55123 5.57112 7.86133 5.5128L19.8613 3.2628L19.9443 3.25206ZM5.375 15.5001C4.79952 15.5001 4.3067 15.679 3.97363 15.9327C3.64118 16.186 3.5 16.4818 3.5 16.7501C3.5 17.0185 3.64118 17.3142 3.97363 17.5675C4.3067 17.8212 4.79952 18.0001 5.375 18.0001C5.95048 18.0001 6.4433 17.8212 6.77637 17.5675C7.10882 17.3142 7.25 17.0185 7.25 16.7501C7.25 16.4818 7.10882 16.186 6.77637 15.9327C6.4433 15.679 5.95048 15.5001 5.375 15.5001ZM17.375 13.2501C16.7995 13.2501 16.3067 13.429 15.9736 13.6827C15.6412 13.936 15.5 14.2318 15.5 14.5001C15.5 14.7685 15.6412 15.0642 15.9736 15.3175C16.3067 15.5712 16.7995 15.7501 17.375 15.7501C17.9505 15.7501 18.4433 15.5712 18.7764 15.3175C19.1088 15.0642 19.25 14.7685 19.25 14.5001C19.25 14.2318 19.1088 13.936 18.7764 13.6827C18.4433 13.429 17.9505 13.2501 17.375 13.2501ZM8.75 6.87218V9.09288L19.25 7.08214V4.90343L8.75 6.87218Z" fill="#344054"/>
</svg>
