<svg width="24" height="24" viewBox="0 0 24 24" fill="none" xmlns="http://www.w3.org/2000/svg">
<path d="M13.5 20.5C13.9142 20.5 14.25 20.8358 14.25 21.25C14.25 21.6642 13.9142 22 13.5 22H10.5C10.0858 22 9.75 21.6642 9.75 21.25C9.75 20.8358 10.0858 20.5 10.5 20.5H13.5ZM12 2.00098C12.4142 2.00098 12.75 2.33676 12.75 2.75098V3.53809C16.54 3.91438 19.5 7.11197 19.5 11.001V17.501H20C20.4142 17.501 20.75 17.8368 20.75 18.251C20.75 18.6652 20.4142 19.001 20 19.001H4C3.58579 19.001 3.25 18.6652 3.25 18.251C3.25 17.8368 3.58579 17.501 4 17.501H4.5V11.001C4.5 7.11197 7.46001 3.91438 11.25 3.53809V2.75098C11.25 2.33676 11.5858 2.00098 12 2.00098ZM12 5.00098C8.68629 5.00098 6 7.68727 6 11.001V17.501H18V11.001C18 7.68727 15.3137 5.00098 12 5.00098Z" fill="#344054"/>
</svg>
