<svg width="24" height="24" viewBox="0 0 24 24" fill="none" xmlns="http://www.w3.org/2000/svg">
<path d="M18.5 3.25C19.7426 3.25 20.75 4.25736 20.75 5.5V18.5C20.75 19.7426 19.7426 20.75 18.5 20.75H5.5C4.25736 20.75 3.25 19.7426 3.25 18.5V5.5C3.25 4.25736 4.25736 3.25 5.5 3.25H18.5ZM5.5 4.75C5.08579 4.75 4.75 5.08579 4.75 5.5V18.5C4.75 18.9142 5.08579 19.25 5.5 19.25H18.5C18.9142 19.25 19.25 18.9142 19.25 18.5V5.5C19.25 5.08579 18.9142 4.75 18.5 4.75H5.5ZM17 13.5352C17.4142 13.5352 17.7499 13.871 17.75 14.2852C17.75 14.6994 17.4142 15.0352 17 15.0352H7C6.58579 15.0352 6.25 14.6994 6.25 14.2852C6.25008 13.871 6.58583 13.5352 7 13.5352H17ZM17 8.96387C17.4142 8.96387 17.75 9.29965 17.75 9.71387C17.75 10.1281 17.4142 10.4639 17 10.4639H7C6.58579 10.4639 6.25 10.1281 6.25 9.71387C6.25 9.29965 6.58579 8.96387 7 8.96387H17Z" fill="#344054"/>
</svg>
