<svg width="24" height="24" viewBox="0 0 24 24" fill="none" xmlns="http://www.w3.org/2000/svg">
<path d="M16.4097 3.53292C17.2883 2.65439 18.7126 2.65439 19.5913 3.53292L21.1821 5.12374C22.0608 6.00242 22.0608 7.42768 21.1821 8.30636L10.9448 18.5427C10.6364 18.8511 10.2446 19.064 9.81786 19.154L5.5493 20.0544C5.30141 20.1065 5.04387 20.0294 4.86473 19.8503C4.68569 19.6711 4.60948 19.4136 4.66161 19.1657L5.562 14.8972C5.65202 14.4704 5.86396 14.0786 6.17235 13.7702L16.4097 3.53292ZM7.2329 14.8308C7.13012 14.9336 7.05978 15.0645 7.02977 15.2067L6.36669 18.3483L9.50927 17.6853C9.65138 17.6552 9.78155 17.5848 9.88427 17.4821L17.6645 9.70089L15.0132 7.04952L7.2329 14.8308ZM18.5308 4.59347C18.2379 4.30072 17.7631 4.30072 17.4702 4.59347L16.0737 5.98897L18.7251 8.64034L20.1216 7.24483C20.4144 6.95193 20.4144 6.47714 20.1216 6.18429L18.5308 4.59347Z" fill="#344054"/>
</svg>
