<svg width="24" height="24" viewBox="0 0 24 24" fill="none" xmlns="http://www.w3.org/2000/svg">
<path d="M14.75 2C15.1642 2 15.5 2.33579 15.5 2.75V5.7334H19C19.4142 5.7334 19.75 6.06918 19.75 6.4834C19.75 6.89761 19.4142 7.2334 19 7.2334H18.5V12.2334C18.5 15.5695 15.9865 18.3165 12.75 18.6885V21.25C12.75 21.6642 12.4142 22 12 22C11.5858 22 11.25 21.6642 11.25 21.25V18.6885C8.01354 18.3165 5.5 15.5695 5.5 12.2334V7.2334H5C4.58579 7.2334 4.25 6.89761 4.25 6.4834C4.25 6.06918 4.58579 5.7334 5 5.7334H8.5V2.75C8.5 2.33579 8.83579 2 9.25 2C9.66421 2 10 2.33579 10 2.75V5.7334H14V2.75C14 2.33579 14.3358 2 14.75 2ZM7 12.2334C7 14.9948 9.23858 17.2334 12 17.2334C14.7614 17.2334 17 14.9948 17 12.2334V7.2334H7V12.2334Z" fill="#344054"/>
</svg>
