<svg width="24" height="24" viewBox="0 0 24 24" fill="none" xmlns="http://www.w3.org/2000/svg">
<path d="M12 5.25C12.4142 5.25 12.75 5.58579 12.75 6V11.25H18.001L18.0771 11.2539C18.4554 11.2922 18.7509 11.6117 18.751 12C18.751 12.3884 18.4554 12.7078 18.0771 12.7461L18.001 12.75H12.75V18.001L12.7461 18.0771C12.7078 18.4554 12.3884 18.751 12 18.751C11.6117 18.7509 11.2922 18.4554 11.2539 18.0771L11.25 18.001V12.75H6C5.58579 12.75 5.25 12.4142 5.25 12C5.25013 11.5859 5.58587 11.25 6 11.25H11.25V6C11.25 5.58587 11.5859 5.25013 12 5.25Z" fill="#344054"/>
</svg>
