<svg width="24" height="24" viewBox="0 0 24 24" fill="none" xmlns="http://www.w3.org/2000/svg">
<path d="M14.748 3.25098C15.3325 3.25106 15.8938 3.47894 16.3135 3.88574L17.4707 5.00684C17.9079 5.43063 18.1553 6.01415 18.1553 6.62305V7.79102H18.499C19.7417 7.79102 20.749 8.79838 20.749 10.041V13.96C20.7488 15.2024 19.7415 16.21 18.499 16.21H18.1543V18.5C18.1543 19.7425 17.1467 20.7498 15.9043 20.75H8.09375C6.85112 20.75 5.84377 19.7426 5.84375 18.5V16.21H5.5C4.25752 16.21 3.25026 15.2024 3.25 13.96V10.041C3.25 8.79838 4.25736 7.79102 5.5 7.79102H5.84473V5.50098C5.84473 4.25834 6.85209 3.25098 8.09473 3.25098H14.748ZM7.34375 18.5C7.34377 18.9142 7.67955 19.25 8.09375 19.25H15.9043C16.3183 19.2498 16.6543 18.9141 16.6543 18.5V14.6963H7.34375V18.5ZM5.5 9.29102C5.08579 9.29102 4.75 9.6268 4.75 10.041V13.96C4.75026 14.374 5.08594 14.71 5.5 14.71H5.84375V13.9463L5.84766 13.8691C5.88628 13.4912 6.20558 13.1963 6.59375 13.1963H17.4043C17.8183 13.1965 18.1543 13.5322 18.1543 13.9463V14.71H18.499C18.9131 14.71 19.2488 14.374 19.249 13.96V10.041C19.249 9.6268 18.9132 9.29102 18.499 9.29102H5.5ZM8.09473 4.75098C7.68051 4.75098 7.34473 5.08676 7.34473 5.50098V7.79102H16.6553V6.62305C16.6553 6.42008 16.5725 6.22525 16.4268 6.08398L15.2695 4.96289C15.1297 4.82734 14.9428 4.75106 14.748 4.75098H8.09473Z" fill="#344054"/>
</svg>
