<svg width="24" height="24" viewBox="0 0 24 24" fill="none" xmlns="http://www.w3.org/2000/svg">
<path d="M7.24776 3.77177C8.98515 2.76873 10.9958 2.34137 12.9909 2.55107C14.9861 2.7608 16.8633 3.59736 18.3542 4.93974C19.3645 5.84946 20.1608 6.96058 20.6999 8.19267L21.695 5.26006C21.8281 4.86781 22.2539 4.65732 22.6462 4.79033C23.0383 4.92333 23.2487 5.34934 23.1159 5.7415L21.5036 10.4964C21.4397 10.6845 21.3029 10.84 21.1247 10.928C20.9465 11.0159 20.7406 11.0289 20.5524 10.9651L20.3728 10.9036C20.3348 10.894 20.2981 10.8818 20.2624 10.8665L15.7976 9.35283L15.7263 9.32549C15.3804 9.16766 15.2041 8.76942 15.3288 8.40166C15.4537 8.0342 15.8354 7.82641 16.2058 7.91142L16.28 7.93291L19.4099 8.99345C18.9569 7.87602 18.2563 6.86891 17.3513 6.054C16.0958 4.92355 14.5139 4.21985 12.8337 4.04326C11.1536 3.86673 9.46077 4.22691 7.99776 5.07158C6.53476 5.9163 5.37629 7.20211 4.68916 8.74541C4.00206 10.2887 3.82137 12.01 4.17256 13.6624C4.5238 15.3148 5.38885 16.8142 6.64424 17.9446C7.89973 19.0751 9.48164 19.7788 11.1618 19.9554C12.8419 20.1319 14.5347 19.7717 15.9978 18.927C16.3564 18.7201 16.8151 18.8438 17.0222 19.2024C17.2291 19.5611 17.1064 20.0198 16.7478 20.2269C15.0104 21.2299 12.9998 21.6573 11.0046 21.4476C9.00943 21.2378 7.13218 20.4013 5.64131 19.0589C4.15054 17.7166 3.12294 15.9371 2.70576 13.9749C2.28865 12.0125 2.50305 9.96781 3.31905 8.13506C4.13505 6.30239 5.5104 4.77484 7.24776 3.77177Z" fill="#344054"/>
</svg>
