<svg width="24" height="24" viewBox="0 0 24 24" fill="none" xmlns="http://www.w3.org/2000/svg">
<path d="M12.2949 3.87043C12.0147 3.75437 11.692 3.8191 11.4775 4.03352L5.85059 9.66047C5.70994 9.80112 5.63087 9.99185 5.63086 10.1907C5.63086 10.3897 5.70993 10.5804 5.85059 10.721L11.4775 16.348C11.692 16.5624 12.0147 16.6271 12.2949 16.5111C12.5751 16.3949 12.7578 16.121 12.7578 15.8177V12.9232C16.4957 13.2503 19.5407 15.9995 20.3125 19.5921C20.3867 19.9378 20.6924 20.1849 21.0459 20.1849C21.3994 20.1849 21.7051 19.9377 21.7793 19.5921C21.9253 18.9121 22.002 18.2069 22.002 17.4847C22.0019 12.2174 17.927 7.90453 12.7578 7.52082V4.56379L12.749 4.45149C12.7102 4.19446 12.54 3.972 12.2949 3.87043ZM8.28613 4.03352C8.01153 3.75892 7.57681 3.74145 7.28223 3.98176L7.22559 4.03352L2.65918 8.59993C1.78062 9.47857 1.78064 10.9029 2.65918 11.7816L7.22559 16.348C7.51848 16.6409 7.99324 16.6409 8.28613 16.348C8.57899 16.0551 8.57902 15.5803 8.28613 15.2874L3.71973 10.721C3.42697 10.4281 3.42695 9.95334 3.71973 9.66047L8.28613 5.09407L8.33789 5.03743C8.5782 4.74284 8.56074 4.30812 8.28613 4.03352ZM11.2578 8.24055C11.2579 8.6547 11.5936 8.99055 12.0078 8.99055C16.1507 8.99065 19.5987 11.9568 20.3486 15.8812C18.5603 13.1764 15.4936 11.391 12.0078 11.3909C11.5937 11.3909 11.2579 11.7268 11.2578 12.1409V14.0072L7.44141 10.1907L11.2578 6.37434V8.24055Z" fill="#344054"/>
</svg>
