<svg width="24" height="24" viewBox="0 0 24 24" fill="none" xmlns="http://www.w3.org/2000/svg">
<path d="M11.25 2.00098C16.3585 2.00098 20.5 6.14134 20.5 11.249C20.5 13.5334 19.6697 15.6228 18.2969 17.2363L21.7793 20.7188L21.8311 20.7764C22.071 21.0709 22.0536 21.5048 21.7793 21.7793C21.5046 22.0539 21.07 22.0715 20.7754 21.8311L20.7188 21.7793L17.2363 18.2969C15.6227 19.6682 13.5336 20.4971 11.25 20.4971C6.14156 20.4971 2.00004 16.3567 2 11.249C2 6.14134 6.14154 2.00098 11.25 2.00098ZM11.25 3.50098C6.96962 3.50098 3.5 6.97011 3.5 11.249C3.50004 15.5279 6.96965 18.9971 11.25 18.9971C15.5303 18.9971 19 15.5279 19 11.249C19 6.97011 15.5304 3.50098 11.25 3.50098Z" fill="#344054"/>
</svg>
