<svg width="24" height="24" viewBox="0 0 24 24" fill="none" xmlns="http://www.w3.org/2000/svg">
<path d="M20.702 9.9606C22.434 10.7683 22.4339 13.2309 20.702 14.0387L5.20686 21.2633C3.33545 22.1356 1.37519 20.2369 2.18733 18.3385L4.77327 12.2946C4.85377 12.1062 4.85384 11.8931 4.77327 11.7047L2.18733 5.6608C1.37539 3.76242 3.33545 1.86449 5.20687 2.73697L20.702 9.9606ZM20.0682 12.6794C20.6453 12.41 20.6454 11.5892 20.0682 11.32L4.57308 4.09635C3.9493 3.80553 3.29568 4.43819 3.56624 5.07096L6.15218 11.1149C6.17056 11.1579 6.18542 11.202 6.20101 11.2458L10.9412 11.2458C11.3555 11.2458 11.6912 11.5815 11.6912 11.9958C11.6912 12.41 11.3555 12.7458 10.9412 12.7458L6.20394 12.7458C6.1876 12.7922 6.17165 12.8389 6.15218 12.8844L3.56624 18.9284C3.29555 19.5611 3.94932 20.1945 4.57308 19.904L20.0682 12.6794Z" fill="#344054"/>
</svg>
