<svg width="24" height="24" viewBox="0 0 24 24" fill="none" xmlns="http://www.w3.org/2000/svg">
<path d="M13.7468 2.01172C14.8729 2.1263 15.7515 3.07728 15.7517 4.2334L15.7585 4.33691C15.8274 4.84009 16.394 5.13365 16.8523 4.86914L17.0554 4.76465C18.0879 4.30069 19.3249 4.68514 19.9031 5.68652L21.4197 8.31348L21.5232 8.5166C21.9564 9.48043 21.6507 10.6221 20.7937 11.2402L20.6013 11.3643C20.1123 11.6467 20.1124 12.3533 20.6013 12.6357L20.7937 12.7598C21.6507 13.3779 21.9564 14.5196 21.5232 15.4834L21.4187 15.6865L19.9031 18.3135C19.3249 19.3149 18.0879 19.6993 17.0554 19.2354L16.8523 19.1309C16.3635 18.8488 15.7517 19.2019 15.7517 19.7666C15.7515 20.9227 14.8729 21.8737 13.7468 21.9883L13.5183 22H10.4861C9.25235 21.9999 8.2517 20.9994 8.2517 19.7656C8.25142 19.2364 7.71423 18.8932 7.24389 19.085L7.15014 19.1309C6.14844 19.7088 4.88468 19.4233 4.2224 18.5049L4.09838 18.3125L2.58275 15.6865C1.96618 14.6182 2.33196 13.2526 3.40014 12.6357L3.48607 12.5781C3.86087 12.2875 3.86089 11.7125 3.48607 11.4219L3.40014 11.3643C2.33196 10.7474 1.96615 9.3818 2.58275 8.31348L4.09838 5.6875L4.2224 5.49512C4.88469 4.57673 6.14845 4.2912 7.15014 4.86914L7.24389 4.91504C7.68311 5.09406 8.18072 4.80673 8.24486 4.33691L8.2517 4.23438C8.25171 3.00063 9.25234 2.00007 10.4861 2H13.5183L13.7468 2.01172ZM10.4861 3.5C10.0808 3.50007 9.75171 3.82905 9.7517 4.23438L9.74584 4.39355C9.63859 5.96698 7.95667 6.93745 6.54076 6.24316L6.40014 6.16895C6.07092 5.97903 5.65582 6.07236 5.43822 6.37402L5.39721 6.4375L3.88158 9.06348C3.67925 9.41437 3.79935 9.86282 4.15014 10.0654L4.2849 10.1494C5.59442 11.0286 5.59443 12.9714 4.2849 13.8506L4.15014 13.9346C3.79936 14.1372 3.67928 14.5856 3.88158 14.9365L5.39721 17.5625L5.43822 17.626C5.65581 17.9277 6.07091 18.021 6.40014 17.8311L6.54076 17.7568C8.00382 17.0394 9.75141 18.0995 9.7517 19.7656C9.7517 20.1709 10.0808 20.4999 10.4861 20.5H13.5183L13.5935 20.4961C13.963 20.4583 14.2515 20.1462 14.2517 19.7666C14.2517 18.0475 16.1132 16.9724 17.6023 17.832L17.6687 17.8662C18.0076 18.0185 18.4133 17.8921 18.6033 17.5635L20.1199 14.9365L20.154 14.8701C20.2964 14.5535 20.1962 14.1787 19.9148 13.9756L19.8513 13.9346C18.3625 13.0747 18.3625 10.9253 19.8513 10.0654L19.9148 10.0244C20.1962 9.82128 20.2964 9.44646 20.154 9.12988L20.1199 9.06348L18.6042 6.43652C18.4144 6.10772 18.0077 5.98145 17.6687 6.13379L17.6023 6.16797C16.1132 7.02762 14.2517 5.95249 14.2517 4.2334L14.2478 4.15918C14.2129 3.8138 13.9386 3.53919 13.5935 3.50391L13.5183 3.5H10.4861ZM12.0007 8.16504C14.1187 8.16504 15.8357 9.88201 15.8357 12C15.8356 14.118 14.1187 15.835 12.0007 15.835C9.88283 15.8349 8.16582 14.1179 8.16576 12C8.16578 9.88206 9.88281 8.16513 12.0007 8.16504ZM12.0007 9.66504C10.7112 9.66513 9.66578 10.7105 9.66576 12C9.66582 13.2895 10.7113 14.3349 12.0007 14.335C13.2903 14.335 14.3356 13.2895 14.3357 12C14.3357 10.7104 13.2903 9.66504 12.0007 9.66504Z" fill="#344054"/>
</svg>
