<svg width="24" height="24" viewBox="0 0 24 24" fill="none" xmlns="http://www.w3.org/2000/svg">
<path d="M12.0007 3C12.2859 3.00015 12.5462 3.1622 12.6725 3.41797L15.1784 8.49609L20.7829 9.31055C21.0652 9.35173 21.3002 9.549 21.3884 9.82031C21.4766 10.0918 21.4024 10.3906 21.1979 10.5898L17.1432 14.542L18.1003 20.123C18.1485 20.4043 18.0332 20.6886 17.8024 20.8564C17.5715 21.0242 17.2651 21.0459 17.0124 20.9131L11.9997 18.2773L6.98796 20.9131C6.73528 21.0459 6.42888 21.0242 6.19793 20.8564C5.96718 20.6886 5.85188 20.4043 5.90007 20.123L6.85613 14.542L2.80242 10.5898C2.59799 10.3906 2.52475 10.0918 2.61296 9.82031C2.70127 9.54898 2.93604 9.35158 3.21843 9.31055L8.82097 8.49609L11.3278 3.41797L11.3815 3.32617C11.52 3.12392 11.7511 3 12.0007 3ZM9.99187 9.51367C9.88256 9.73478 9.67153 9.88836 9.42742 9.92383L4.93718 10.5762L8.18621 13.7432C8.36297 13.9155 8.44376 14.1639 8.40203 14.4072L7.63543 18.8779L11.6511 16.7676L11.735 16.7295C11.9343 16.6541 12.1581 16.6671 12.3493 16.7676L16.3639 18.8779L15.5983 14.4072C15.5566 14.1639 15.6374 13.9155 15.8141 13.7432L19.0622 10.5762L14.5729 9.92383C14.3288 9.88835 14.1178 9.73482 14.0085 9.51367L11.9997 5.44434L9.99187 9.51367Z" fill="#344054"/>
</svg>
