<svg width="24" height="24" viewBox="0 0 24 24" fill="none" xmlns="http://www.w3.org/2000/svg">
<path d="M11.1618 3.03703C11.447 3.03718 11.7073 3.19923 11.8337 3.45499L14.2585 8.36808L19.6813 9.15617C19.9637 9.19734 20.1986 9.39552 20.2868 9.66691C20.3748 9.93834 20.3007 10.2363 20.0963 10.4355L16.1725 14.2597L17.0993 19.6601C17.1475 19.9414 17.0314 20.2257 16.8004 20.3935C16.5696 20.5611 16.264 20.5837 16.0114 20.4511L11.1608 17.9003L6.31119 20.4511C6.05861 20.5837 5.75294 20.5611 5.52213 20.3935C5.29117 20.2257 5.17504 19.9414 5.2233 19.6601L6.14908 14.2597L2.22623 10.4355C2.02182 10.2362 1.94859 9.9384 2.03678 9.66691C2.125 9.3954 2.35973 9.19722 2.64225 9.15617L8.06314 8.36808L10.4889 3.45499L10.5426 3.3632C10.6811 3.16095 10.9122 3.03703 11.1618 3.03703ZM9.23502 9.38566C9.12577 9.60702 8.91387 9.76032 8.66959 9.79581L4.361 10.4218L7.47916 13.4609C7.65591 13.6331 7.73668 13.8816 7.69498 14.1249L6.95865 18.415L10.8122 16.3896L10.8962 16.3525C11.0954 16.2771 11.3193 16.2891 11.5104 16.3896L15.3629 18.415L14.6276 14.1249C14.5859 13.8817 14.6667 13.6331 14.8434 13.4609L17.9606 10.4218L13.653 9.79581C13.4087 9.76032 13.1978 9.60701 13.0885 9.38566L11.1608 5.48136L9.23502 9.38566ZM20.5905 5.12785C20.8834 4.83498 21.3581 4.835 21.651 5.12785C21.9439 5.42071 21.9439 5.89549 21.651 6.18839L20.151 7.68839C19.8582 7.98111 19.3833 7.98119 19.0905 7.68839C18.7978 7.39557 18.7979 6.92071 19.0905 6.62785L20.5905 5.12785ZM17.0299 6.56828C16.7371 6.86068 16.2631 6.85989 15.9704 6.5673C15.6777 6.27436 15.6775 5.79955 15.9704 5.50675L17.0299 6.56828ZM20.3659 1.11222C20.6588 0.819376 21.1336 0.819352 21.4264 1.11222C21.7193 1.40513 21.7193 1.8799 21.4264 2.17277L17.0299 6.56828L16.5006 6.03703L15.9704 5.50675L20.3659 1.11222ZM15.5973 1.63566C15.8902 1.34279 16.365 1.34281 16.6579 1.63566C16.9507 1.92853 16.9507 2.4033 16.6579 2.69621L15.1579 4.19621C14.865 4.48892 14.3902 4.489 14.0973 4.19621C13.8047 3.90338 13.8047 3.42852 14.0973 3.13566L15.5973 1.63566Z" fill="#344054"/>
</svg>
