<svg width="24" height="24" viewBox="0 0 24 24" fill="none" xmlns="http://www.w3.org/2000/svg">
<path d="M12 19.001C12.4142 19.001 12.75 19.3368 12.75 19.751V21.251C12.75 21.6652 12.4142 22.001 12 22.001C11.5858 22.001 11.25 21.6652 11.25 21.251V19.751C11.25 19.3368 11.5858 19.001 12 19.001ZM5.99023 16.9502C6.28313 16.6573 6.75789 16.6573 7.05078 16.9502C7.34367 17.2431 7.34367 17.7178 7.05078 18.0107L5.99023 19.0713C5.69734 19.3642 5.22258 19.3642 4.92969 19.0713C4.63679 18.7784 4.63679 18.3036 4.92969 18.0107L5.99023 16.9502ZM16.9502 16.9492C17.2431 16.6563 17.7178 16.6563 18.0107 16.9492L19.0713 18.0098C19.3642 18.3027 19.3642 18.7774 19.0713 19.0703C18.7784 19.3632 18.3036 19.3632 18.0107 19.0703L16.9502 18.0098C16.6573 17.7169 16.6573 17.2421 16.9502 16.9492ZM12.001 6.50195C15.0375 6.50195 17.4988 8.96357 17.499 12C17.499 15.0366 15.0376 17.498 12.001 17.498C8.96456 17.4978 6.50293 15.0365 6.50293 12C6.50313 8.9637 8.96468 6.50216 12.001 6.50195ZM12.001 8.00195C9.7931 8.00216 8.00313 9.79212 8.00293 12C8.00293 14.208 9.79298 15.9978 12.001 15.998C14.2091 15.998 15.999 14.2082 15.999 12C15.9988 9.792 14.209 8.00195 12.001 8.00195ZM4.25098 11.25C4.66519 11.25 5.00098 11.5858 5.00098 12C5.00098 12.4142 4.66519 12.75 4.25098 12.75H2.75098C2.33676 12.75 2.00098 12.4142 2.00098 12C2.00098 11.5858 2.33676 11.25 2.75098 11.25H4.25098ZM21.25 11.25C21.6642 11.25 22 11.5858 22 12C22 12.4142 21.6642 12.75 21.25 12.75H19.75C19.3358 12.75 19 12.4142 19 12C19 11.5858 19.3358 11.25 19.75 11.25H21.25ZM4.92969 4.92969C5.22258 4.63679 5.69734 4.63679 5.99023 4.92969L7.05078 5.99023C7.34367 6.28313 7.34367 6.75789 7.05078 7.05078C6.75789 7.34367 6.28313 7.34367 5.99023 7.05078L4.92969 5.99023C4.63679 5.69734 4.63679 5.22258 4.92969 4.92969ZM18.0107 4.92969C18.3036 4.63679 18.7784 4.63679 19.0713 4.92969C19.3642 5.22258 19.3642 5.69734 19.0713 5.99023L18.0107 7.05078C17.7178 7.34367 17.2431 7.34367 16.9502 7.05078C16.6573 6.75789 16.6573 6.28313 16.9502 5.99023L18.0107 4.92969ZM12 2C12.4142 2 12.75 2.33579 12.75 2.75V4.25C12.75 4.66421 12.4142 5 12 5C11.5858 5 11.25 4.66421 11.25 4.25V2.75C11.25 2.33579 11.5858 2 12 2Z" fill="#344054"/>
</svg>
