<svg width="24" height="24" viewBox="0 0 24 24" fill="none" xmlns="http://www.w3.org/2000/svg">
<path d="M18.5 3.25C19.7426 3.25 20.75 4.25736 20.75 5.5V18.5C20.75 19.7426 19.7426 20.75 18.5 20.75H5.5C4.25736 20.75 3.25 19.7426 3.25 18.5V5.5C3.25 4.25736 4.25736 3.25 5.5 3.25H18.5ZM4.75 18.5C4.75 18.9142 5.08579 19.25 5.5 19.25H8.58301V15.416H4.75V18.5ZM10.083 19.25H13.916V15.416H10.083V19.25ZM15.416 19.25H18.5C18.9142 19.25 19.25 18.9142 19.25 18.5V15.416H15.416V19.25ZM4.75 10.083V13.916H8.58301V10.083H4.75ZM10.083 10.083V13.916H13.916V10.083H10.083ZM15.416 10.083V13.916H19.25V10.083H15.416ZM5.5 4.75C5.08579 4.75 4.75 5.08579 4.75 5.5V8.58301H19.25V5.5C19.25 5.08579 18.9142 4.75 18.5 4.75H5.5Z" fill="#344054"/>
</svg>
