<svg width="24" height="24" viewBox="0 0 24 24" fill="none" xmlns="http://www.w3.org/2000/svg">
<path d="M13.75 2C14.9926 2 16 3.00736 16 4.25V5H19.999C20.4132 5 20.749 5.33579 20.749 5.75C20.749 6.16421 20.4132 6.5 19.999 6.5H19.5V19.75C19.5 20.9926 18.4926 22 17.25 22H6.75C5.50736 22 4.5 20.9926 4.5 19.75V6.5H4C3.58579 6.5 3.25 6.16421 3.25 5.75C3.25 5.33579 3.58579 5 4 5H8V4.25C8 3.00736 9.00736 2 10.25 2H13.75ZM6 19.75C6 20.1642 6.33579 20.5 6.75 20.5H17.25C17.6642 20.5 18 20.1642 18 19.75V6.5H6V19.75ZM10 9.75C10.4142 9.75 10.75 10.0858 10.75 10.5V16.5C10.75 16.9142 10.4142 17.25 10 17.25C9.58579 17.25 9.25 16.9142 9.25 16.5V10.5C9.25 10.0858 9.58579 9.75 10 9.75ZM14 9.75C14.4142 9.75 14.75 10.0858 14.75 10.5V16.5C14.75 16.9142 14.4142 17.25 14 17.25C13.5858 17.25 13.25 16.9142 13.25 16.5V10.5C13.25 10.0858 13.5858 9.75 14 9.75ZM10.25 3.5C9.83579 3.5 9.5 3.83579 9.5 4.25V5H14.5V4.25C14.5 3.83579 14.1642 3.5 13.75 3.5H10.25Z" fill="#344054"/>
</svg>
