<svg width="24" height="24" viewBox="0 0 24 24" fill="none" xmlns="http://www.w3.org/2000/svg">
<path d="M20.001 15.25C20.4151 15.2501 20.751 15.5858 20.751 16V18.5C20.751 19.7426 19.7436 20.7499 18.501 20.75H5.5C4.25736 20.75 3.25 19.7426 3.25 18.5V16C3.25 15.5858 3.58579 15.25 4 15.25C4.41421 15.25 4.75 15.5858 4.75 16V18.5C4.75 18.9142 5.08579 19.25 5.5 19.25H18.501C18.9151 19.2499 19.251 18.9142 19.251 18.5V16C19.251 15.5858 19.5868 15.25 20.001 15.25ZM12.002 3.25C12.2218 3.25001 12.4175 3.3464 12.5547 3.49707L17.1553 8.09473C17.4479 8.38754 17.4479 8.86241 17.1553 9.15527C16.8625 9.44784 16.3876 9.44779 16.0947 9.15527L12.752 5.81348V16C12.752 16.4142 12.4161 16.75 12.002 16.75C11.5877 16.75 11.252 16.4142 11.252 16V5.80957L7.90527 9.15527L7.84863 9.20703C7.55411 9.44712 7.11926 9.42959 6.84473 9.15527C6.57034 8.88071 6.55293 8.44587 6.79297 8.15137L6.84473 8.09473L11.4697 3.47266L11.498 3.44434C11.5175 3.4267 11.5393 3.41203 11.5605 3.39648C11.5688 3.39046 11.5765 3.38357 11.585 3.37793C11.7043 3.29777 11.8474 3.25 12.002 3.25Z" fill="#344054"/>
</svg>
