<svg width="24" height="24" viewBox="0 0 24 24" fill="none" xmlns="http://www.w3.org/2000/svg">
<path d="M12 2C17.5228 2 22 6.47715 22 12C22 17.5228 17.5228 22 12 22C6.47715 22 2 17.5228 2 12C2 6.47715 6.47715 2 12 2ZM10.7246 15.0957C8.65354 15.0957 6.97461 16.7746 6.97461 18.8457V18.8535C8.38245 19.8876 10.1193 20.5 12 20.5C13.8802 20.5 15.6168 19.8881 17.0244 18.8545V18.8457C17.0244 16.7746 15.3455 15.0957 13.2744 15.0957H10.7246ZM12 3.5C7.30558 3.5 3.5 7.30558 3.5 12C3.5 14.1523 4.30127 16.1167 5.62012 17.6143C6.17427 15.3089 8.24924 13.5957 10.7246 13.5957H13.2744C15.75 13.5957 17.824 15.3095 18.3779 17.6152C19.6976 16.1175 20.5 14.1531 20.5 12C20.5 7.30558 16.6944 3.5 12 3.5ZM11.999 5.75C13.9417 5.7501 15.5174 7.32491 15.5176 9.26758C15.5176 11.2104 13.9418 12.786 11.999 12.7861C10.0563 12.786 8.48145 11.2103 8.48145 9.26758C8.48158 7.32494 10.0564 5.75014 11.999 5.75ZM11.999 7.25C10.8848 7.25014 9.98158 8.15336 9.98145 9.26758C9.98145 10.3819 10.8847 11.286 11.999 11.2861C13.1134 11.286 14.0176 10.3819 14.0176 9.26758C14.0174 8.15334 13.1133 7.2501 11.999 7.25Z" fill="#344054"/>
</svg>
