<svg width="24" height="24" viewBox="0 0 24 24" fill="none" xmlns="http://www.w3.org/2000/svg">
<path d="M8.74961 12.4551C11.0438 12.4551 12.6284 13.2009 13.693 14.2549C14.7388 15.2905 15.2201 16.561 15.4439 17.5205C15.765 18.8972 14.6066 19.8984 13.4244 19.8984H4.07578C2.89361 19.8984 1.73513 18.8973 2.05625 17.5205C2.2801 16.5611 2.76043 15.2905 3.80625 14.2549C4.87072 13.2009 6.45541 12.4552 8.74961 12.4551ZM15.2496 12.4551C17.5438 12.4551 19.1284 13.2009 20.193 14.2549C21.2389 15.2906 21.7201 16.561 21.9439 17.5205C22.2651 18.8973 21.1066 19.8984 19.9244 19.8984H16.3902C16.7015 19.4735 16.9143 18.9686 16.9811 18.3984H19.9244C20.1337 18.3984 20.2987 18.3138 20.3932 18.2109C20.4791 18.1173 20.5162 18.0036 20.483 17.8613C20.2963 17.0612 19.9129 16.0885 19.1383 15.3213C18.4049 14.5951 17.2608 13.9938 15.4234 13.958C15.2233 13.6955 14.9994 13.4377 14.7486 13.1895C14.5135 12.9567 14.2598 12.7393 13.9889 12.5371C14.3832 12.4838 14.8029 12.4551 15.2496 12.4551ZM8.74961 13.9551C6.81036 13.9552 5.61811 14.5725 4.86191 15.3213C4.08728 16.0885 3.7029 17.0612 3.51621 17.8613C3.48314 18.0035 3.52111 18.1173 3.60703 18.2109C3.70153 18.3138 3.86652 18.3984 4.07578 18.3984H13.4244C13.6337 18.3984 13.7987 18.3138 13.8932 18.2109C13.979 18.1173 14.0161 18.0035 13.983 17.8613C13.7963 17.0612 13.4128 16.0885 12.6383 15.3213C11.882 14.5725 10.6891 13.9551 8.74961 13.9551ZM8.8043 4.10156C10.8459 4.10174 12.5006 5.75717 12.5006 7.79883C12.5004 9.84034 10.8458 11.4949 8.8043 11.4951C6.76264 11.4951 5.1072 9.84045 5.10703 7.79883C5.10703 5.75706 6.76253 4.10156 8.8043 4.10156ZM15.3043 4.10156C17.3459 4.10174 19.0006 5.75717 19.0006 7.79883C19.0004 9.84034 17.3458 11.4949 15.3043 11.4951C14.4692 11.4951 13.6997 11.2169 13.0807 10.75C13.3727 10.3281 13.6037 9.86122 13.7613 9.36133C14.1581 9.7529 14.7028 9.99512 15.3043 9.99512C16.5174 9.99494 17.5004 9.01191 17.5006 7.79883C17.5006 6.5856 16.5175 5.60174 15.3043 5.60156C14.7036 5.60156 14.159 5.84261 13.7623 6.2334C13.6046 5.73347 13.3727 5.26669 13.0807 4.84473C13.6995 4.37814 14.4697 4.10156 15.3043 4.10156ZM8.8043 5.60156C7.59096 5.60156 6.60703 6.58549 6.60703 7.79883C6.6072 9.01202 7.59106 9.99512 8.8043 9.99512C10.0174 9.99494 11.0004 9.01191 11.0006 7.79883C11.0006 6.5856 10.0175 5.60174 8.8043 5.60156Z" fill="#344054"/>
</svg>
