<svg width="24" height="24" viewBox="0 0 24 24" fill="none" xmlns="http://www.w3.org/2000/svg">
<path d="M15.25 5.25C16.4926 5.25 17.5 6.25736 17.5 7.5V8.60352L20.1123 7.05371C20.9453 6.55949 21.9995 7.15942 22 8.12793V15.8721C21.9997 16.8408 20.9454 17.4406 20.1123 16.9463L17.5 15.3945V16.5C17.5 17.7426 16.4926 18.75 15.25 18.75H4.25C3.00736 18.75 2 17.7426 2 16.5V7.5C2 6.25736 3.00736 5.25 4.25 5.25H15.25ZM4.25 6.75C3.83579 6.75 3.5 7.08579 3.5 7.5V16.5C3.5 16.9142 3.83579 17.25 4.25 17.25H15.25C15.6642 17.25 16 16.9142 16 16.5V7.5C16 7.08579 15.6642 6.75 15.25 6.75H4.25ZM17.5 10.3486V13.6504L20.5 15.4316V8.56836L17.5 10.3486Z" fill="#344054"/>
</svg>
