<svg width="24" height="24" viewBox="0 0 24 24" fill="none" xmlns="http://www.w3.org/2000/svg">
<path d="M16 3.25C17.2426 3.25 18.25 4.25736 18.25 5.5V7.25H18.5C19.7426 7.25 20.75 8.25736 20.75 9.5V18.5C20.75 19.7426 19.7426 20.75 18.5 20.75H5.5C4.33517 20.75 3.37714 19.8648 3.26172 18.7305L3.25 18.5V5.5C3.25 4.25736 4.25736 3.25 5.5 3.25H16ZM4.75 18.5L4.75391 18.5771C4.79253 18.9551 5.11183 19.25 5.5 19.25H18.5C18.9142 19.25 19.25 18.9142 19.25 18.5V16.75H16.75C15.5074 16.75 14.5 15.7426 14.5 14.5V13.5C14.5 12.2574 15.5074 11.25 16.75 11.25H19.25V9.5C19.25 9.08579 18.9142 8.75 18.5 8.75H4.75V18.5ZM16.75 12.75C16.3358 12.75 16 13.0858 16 13.5V14.5C16 14.9142 16.3358 15.25 16.75 15.25H19.25V12.75H16.75ZM5.5 4.75C5.08579 4.75 4.75 5.08579 4.75 5.5V7.25H16.75V5.5C16.75 5.08579 16.4142 4.75 16 4.75H5.5Z" fill="#344054"/>
</svg>
