<?xml version="1.0" standalone="no"?>
<!DOCTYPE svg PUBLIC "-//W3C//DTD SVG 20010904//EN"
 "http://www.w3.org/TR/2001/REC-SVG-20010904/DTD/svg10.dtd">
<svg version="1.0" xmlns="http://www.w3.org/2000/svg"
 width="48.000000pt" height="48.000000pt" viewBox="0 0 48.000000 48.000000"
 preserveAspectRatio="xMidYMid meet">

<g transform="translate(0.000000,48.000000) scale(0.100000,-0.100000)"
fill="#000000" stroke="none">
<path d="M162 380 c-16 -10 -33 -23 -37 -29 -3 -6 -10 -9 -15 -6 -5 3 -17 -6
-26 -20 -13 -21 -14 -30 -5 -48 11 -20 11 -20 6 8 -4 23 -3 27 5 15 9 -12 10
-11 5 7 -5 18 -3 22 9 17 12 -5 13 -10 6 -25 -7 -12 -7 -30 -1 -51 l10 -33 -1
40 c-1 23 2 48 7 55 5 8 10 21 10 29 0 8 5 16 12 18 12 4 12 -14 -1 -35 -4 -7
-2 -19 4 -27 8 -9 10 -28 6 -46 -3 -16 -2 -28 3 -25 5 3 9 -6 9 -19 0 -33 -6
-31 -22 6 -12 28 -14 29 -19 10 -3 -12 -1 -19 3 -16 5 3 8 -4 7 -15 -2 -26
-14 -26 -22 1 -4 11 -9 18 -12 15 -3 -3 2 -17 11 -30 18 -28 21 -50 6 -41 -24
15 -7 -6 21 -26 26 -18 33 -19 40 -8 7 11 9 11 9 1 0 -7 5 -10 11 -6 8 5 6 10
-5 16 -9 5 -20 7 -25 3 -5 -3 -12 -1 -16 5 -4 6 -11 7 -17 4 -7 -4 -8 -2 -4 5
6 9 11 9 22 0 8 -7 14 -7 14 -1 0 5 -7 15 -15 22 -8 7 -12 16 -9 22 7 10 35
-9 31 -22 -1 -4 3 -8 8 -9 6 -1 10 4 10 9 0 6 7 15 15 20 13 9 13 10 0 11 -8
1 -19 1 -23 0 -5 -1 -7 4 -4 11 2 7 10 12 16 10 9 -2 9 3 1 17 -5 11 -10 33
-10 50 0 22 -5 31 -16 31 -9 0 -14 5 -12 11 2 6 8 10 13 10 6 0 19 8 30 17 19
16 19 16 5 -2 -15 -19 -15 -80 1 -106 9 -16 11 -7 13 50 1 19 6 25 23 24 12 0
20 3 17 8 -3 4 2 8 10 8 8 0 20 -9 26 -19 8 -16 6 -21 -8 -25 -14 -4 -14 -5 2
-3 12 1 20 10 21 25 1 12 7 28 14 35 9 9 10 3 6 -23 -5 -34 -5 -34 5 -6 6 19
6 34 0 41 -6 7 -8 14 -5 17 14 13 -31 31 -84 33 -43 2 -68 -2 -89 -15z m133 0
c4 -6 10 -8 15 -5 5 3 12 0 16 -6 4 -8 3 -9 -4 -5 -7 4 -12 2 -12 -3 0 -6 5
-11 11 -11 8 0 8 -5 -1 -15 -11 -13 -15 -12 -37 5 -28 22 -73 26 -104 10 -15
-8 -19 -8 -17 2 5 20 20 27 49 21 15 -3 35 0 46 6 23 13 30 13 38 1z m-113
-172 c-4 -4 -8 12 -9 35 l-1 42 8 -35 c5 -19 6 -38 2 -42z m18 -34 c0 -8 -19
-13 -24 -6 -3 5 1 9 9 9 8 0 15 -2 15 -3z"/>
<path d="M274 372 c-8 -5 -3 -14 15 -26 26 -20 26 -20 8 0 -9 12 -14 24 -10
27 8 9 1 9 -13 -1z"/>
<path d="M131 295 c1 -19 18 -51 18 -35 0 8 -4 22 -9 30 -5 8 -9 11 -9 5z"/>
<path d="M239 283 c9 -17 7 -29 -9 -56 -18 -30 -18 -36 -6 -46 23 -19 41 -3
22 18 -12 13 -13 20 -4 29 7 7 17 12 23 12 5 0 2 -5 -8 -11 -14 -8 -16 -14 -6
-25 6 -8 16 -14 21 -14 6 0 6 6 -1 14 -9 11 -9 16 0 22 8 5 9 3 4 -6 -5 -8 -4
-11 3 -6 7 4 10 -1 7 -13 -5 -25 22 -35 41 -16 9 8 12 15 7 15 -5 0 -15 -6
-22 -12 -10 -11 -12 -10 -9 2 3 14 -15 44 -55 93 l-18 22 10 -22z"/>
<path d="M81 199 c-1 -8 6 -24 15 -35 15 -19 15 -19 6 1 -5 11 -12 27 -15 35
-5 13 -6 13 -6 -1z"/>
<path d="M327 170 c-26 -21 -42 -26 -33 -11 9 14 -25 23 -39 11 -7 -6 -17 -9
-21 -8 -5 2 -11 -1 -12 -7 -2 -5 -9 -17 -15 -25 -10 -13 -10 -13 4 -2 9 7 23
10 32 6 8 -3 18 -1 22 5 3 6 12 11 18 11 7 0 3 -7 -7 -15 -30 -23 -7 -18 48
10 27 14 59 25 70 25 17 0 18 2 6 10 -23 15 -45 12 -73 -10z m-47 -5 c0 -2
-10 -10 -22 -16 -21 -11 -22 -11 -9 4 13 16 31 23 31 12z"/>
<path d="M360 140 c8 -5 22 -9 30 -9 10 0 8 3 -5 9 -27 12 -43 12 -25 0z"/>
<path d="M225 120 c-4 -6 2 -10 12 -11 16 0 16 -1 -2 -9 -25 -11 2 -12 28 -1
17 6 16 8 -7 19 -16 7 -28 8 -31 2z"/>
<path d="M313 123 c-7 -2 -13 -11 -13 -18 0 -8 -10 -16 -22 -18 -13 -3 -7 -4
12 -4 24 2 34 6 32 16 -2 9 4 12 18 8 14 -3 20 -1 17 6 -4 13 -26 18 -44 10z"/>
</g>
</svg>
